<svg width="99" height="233" viewBox="0 0 99 233" fill="none" xmlns="http://www.w3.org/2000/svg">
<g clip-path="url(#clip0_1600_13761)">
<rect width="98.8248" height="232.556" rx="4.7551" fill="#EDEBEB"/>
<g filter="url(#filter0_d_1600_13761)">
<rect x="7.13265" y="37.0596" width="15.2507" height="15.3401" rx="2.37755" fill="white"/>
<rect x="7.60816" y="37.5351" width="14.2997" height="14.3891" rx="1.90204" stroke="#B9B4B4" stroke-width="0.95102"/>
</g>
<g filter="url(#filter1_d_1600_13761)">
<rect x="24.8235" y="36.4463" width="15.2507" height="15.3401" rx="2.37755" fill="white"/>
<rect x="25.299" y="36.9218" width="14.2997" height="14.3891" rx="1.90204" stroke="#B9B4B4" stroke-width="0.95102"/>
</g>
<g filter="url(#filter2_d_1600_13761)">
<rect x="41.9043" y="43.8096" width="15.2507" height="15.3401" rx="2.37755" fill="white"/>
<rect x="42.3798" y="44.2851" width="14.2997" height="14.3891" rx="1.90204" stroke="#B9B4B4" stroke-width="0.95102"/>
</g>
<g filter="url(#filter3_d_1600_13761)">
<rect x="58.9851" y="35.2188" width="15.2507" height="15.3401" rx="2.37755" fill="white"/>
<rect x="59.4607" y="35.6943" width="14.2997" height="14.3891" rx="1.90204" stroke="#B9B4B4" stroke-width="0.95102"/>
</g>
<g filter="url(#filter4_d_1600_13761)">
<rect x="76.066" y="26.6289" width="15.2507" height="15.3401" rx="2.37755" fill="white"/>
<rect x="76.5415" y="27.1044" width="14.2997" height="14.3891" rx="1.90204" stroke="#B9B4B4" stroke-width="0.95102"/>
</g>
<g filter="url(#filter5_d_1600_13761)">
<rect x="7.13265" y="54.8545" width="15.2507" height="15.3401" rx="2.37755" fill="white"/>
<rect x="7.60816" y="55.33" width="14.2997" height="14.3891" rx="1.90204" stroke="#B9B4B4" stroke-width="0.95102"/>
</g>
<g filter="url(#filter6_d_1600_13761)">
<rect x="7.74268" y="72.8193" width="15.2507" height="15.3401" rx="2.37755" fill="white"/>
<rect x="8.21819" y="73.2948" width="14.2997" height="14.3891" rx="1.90204" stroke="#B9B4B4" stroke-width="0.95102"/>
</g>
<g filter="url(#filter7_d_1600_13761)">
<rect x="24.8235" y="54.2402" width="15.2507" height="15.3401" rx="2.37755" fill="white"/>
<rect x="25.299" y="54.7157" width="14.2997" height="14.3891" rx="1.90204" stroke="#B9B4B4" stroke-width="0.95102"/>
</g>
<g filter="url(#filter8_d_1600_13761)">
<rect x="41.9043" y="61.6045" width="15.2507" height="15.3401" rx="2.37755" fill="white"/>
<rect x="42.3798" y="62.08" width="14.2997" height="14.3891" rx="1.90204" stroke="#B9B4B4" stroke-width="0.95102"/>
</g>
<g filter="url(#filter9_d_1600_13761)">
<rect x="58.9851" y="53.0137" width="15.2507" height="15.3401" rx="2.37755" fill="white"/>
<rect x="59.4607" y="53.4892" width="14.2997" height="14.3891" rx="1.90204" stroke="#B9B4B4" stroke-width="0.95102"/>
</g>
<g filter="url(#filter10_d_1600_13761)">
<rect x="76.066" y="44.4229" width="15.2507" height="15.3401" rx="2.37755" fill="white"/>
<rect x="76.5415" y="44.8984" width="14.2997" height="14.3891" rx="1.90204" stroke="#B9B4B4" stroke-width="0.95102"/>
</g>
<g filter="url(#filter11_d_1600_13761)">
<rect x="24.8235" y="72.6494" width="15.2507" height="15.3401" rx="2.37755" fill="white"/>
<rect x="25.299" y="73.1249" width="14.2997" height="14.3891" rx="1.90204" stroke="#B9B4B4" stroke-width="0.95102"/>
</g>
<g filter="url(#filter12_d_1600_13761)">
<rect x="41.9043" y="80.0117" width="15.2507" height="15.3401" rx="2.37755" fill="white"/>
<rect x="42.3798" y="80.4872" width="14.2997" height="14.3891" rx="1.90204" stroke="#B9B4B4" stroke-width="0.95102"/>
</g>
<g filter="url(#filter13_d_1600_13761)">
<rect x="41.9043" y="97.7041" width="15.2507" height="15.3401" rx="2.37755" fill="white"/>
<rect x="42.3798" y="98.1796" width="14.2997" height="14.3891" rx="1.90204" stroke="#B9B4B4" stroke-width="0.95102"/>
</g>
<g filter="url(#filter14_d_1600_13761)">
<rect x="58.9851" y="71.4219" width="15.2507" height="15.3401" rx="2.37755" fill="white"/>
<rect x="59.4607" y="71.8974" width="14.2997" height="14.3891" rx="1.90204" stroke="#B9B4B4" stroke-width="0.95102"/>
</g>
<g filter="url(#filter15_d_1600_13761)">
<rect x="76.066" y="62.8311" width="15.2507" height="15.3401" rx="2.37755" fill="white"/>
<rect x="76.5415" y="63.3066" width="14.2997" height="14.3891" rx="1.90204" stroke="#B9B4B4" stroke-width="0.95102"/>
</g>
<g filter="url(#filter16_d_1600_13761)">
<rect x="7.13265" y="91.6699" width="15.2507" height="15.3401" rx="2.37755" fill="white"/>
<rect x="7.60816" y="92.1454" width="14.2997" height="14.3891" rx="1.90204" stroke="#B9B4B4" stroke-width="0.95102"/>
</g>
<g filter="url(#filter17_d_1600_13761)">
<rect x="24.8235" y="91.0566" width="15.2507" height="15.3401" rx="2.37755" fill="white"/>
<rect x="25.299" y="91.5322" width="14.2997" height="14.3891" rx="1.90204" stroke="#B9B4B4" stroke-width="0.95102"/>
</g>
<g filter="url(#filter18_d_1600_13761)">
<rect x="58.9851" y="89.8301" width="15.2507" height="15.3401" rx="2.37755" fill="white"/>
<rect x="59.4607" y="90.3056" width="14.2997" height="14.3891" rx="1.90204" stroke="#B9B4B4" stroke-width="0.95102"/>
</g>
<g filter="url(#filter19_d_1600_13761)">
<rect x="76.066" y="81.2393" width="15.2507" height="15.3401" rx="2.37755" fill="white"/>
<rect x="76.5415" y="81.7148" width="14.2997" height="14.3891" rx="1.90204" stroke="#B9B4B4" stroke-width="0.95102"/>
</g>
<g filter="url(#filter20_d_1600_13761)">
<rect x="76.066" y="98.9482" width="15.2507" height="15.3401" rx="2.37755" fill="white"/>
<rect x="76.5415" y="99.4238" width="14.2997" height="14.3891" rx="1.90204" stroke="#B9B4B4" stroke-width="0.95102"/>
</g>
<g filter="url(#filter21_d_1600_13761)">
<rect x="7.13265" y="110.079" width="15.2507" height="15.3401" rx="2.37755" fill="white"/>
<rect x="7.60816" y="110.555" width="14.2997" height="14.3891" rx="1.90204" stroke="#B9B4B4" stroke-width="0.95102"/>
</g>
<g filter="url(#filter22_d_1600_13761)">
<rect x="7.13265" y="128.188" width="15.2507" height="15.3401" rx="2.37755" fill="white"/>
<rect x="7.60816" y="128.664" width="14.2997" height="14.3891" rx="1.90204" stroke="#B9B4B4" stroke-width="0.95102"/>
</g>
<g filter="url(#filter23_d_1600_13761)">
<rect x="24.8235" y="109.465" width="15.2507" height="15.3401" rx="2.37755" fill="white"/>
<rect x="25.299" y="109.94" width="14.2997" height="14.3891" rx="1.90204" stroke="#B9B4B4" stroke-width="0.95102"/>
</g>
<g filter="url(#filter24_d_1600_13761)">
<rect x="41.9043" y="116.828" width="15.2507" height="15.3401" rx="2.37755" fill="white"/>
<rect x="42.3798" y="117.304" width="14.2997" height="14.3891" rx="1.90204" stroke="#B9B4B4" stroke-width="0.95102"/>
</g>
<g filter="url(#filter25_d_1600_13761)">
<rect x="58.9851" y="108.238" width="15.2507" height="15.3401" rx="2.37755" fill="white"/>
<rect x="59.4607" y="108.714" width="14.2997" height="14.3891" rx="1.90204" stroke="#B9B4B4" stroke-width="0.95102"/>
</g>
<g filter="url(#filter26_d_1600_13761)">
<rect x="24.8235" y="127.873" width="15.2507" height="15.3401" rx="2.37755" fill="white"/>
<rect x="25.299" y="128.349" width="14.2997" height="14.3891" rx="1.90204" stroke="#B9B4B4" stroke-width="0.95102"/>
</g>
<g filter="url(#filter27_d_1600_13761)">
<rect x="41.9043" y="135.236" width="15.2507" height="15.3401" rx="2.37755" fill="white"/>
<rect x="42.3798" y="135.712" width="14.2997" height="14.3891" rx="1.90204" stroke="#B9B4B4" stroke-width="0.95102"/>
</g>
<g filter="url(#filter28_d_1600_13761)">
<rect x="58.9851" y="126.646" width="15.2507" height="15.3401" rx="2.37755" fill="white"/>
<rect x="59.4607" y="127.121" width="14.2997" height="14.3891" rx="1.90204" stroke="#B9B4B4" stroke-width="0.95102"/>
</g>
<g filter="url(#filter29_d_1600_13761)">
<rect x="76.066" y="118.056" width="15.2507" height="15.3401" rx="2.37755" fill="white"/>
<rect x="76.5415" y="118.531" width="14.2997" height="14.3891" rx="1.90204" stroke="#B9B4B4" stroke-width="0.95102"/>
</g>
<g filter="url(#filter30_d_1600_13761)">
<rect x="7.13265" y="146.896" width="15.2507" height="15.3401" rx="2.37755" fill="white"/>
<rect x="7.60816" y="147.371" width="14.2997" height="14.3891" rx="1.90204" stroke="#B9B4B4" stroke-width="0.95102"/>
</g>
<g filter="url(#filter31_d_1600_13761)">
<rect x="24.8235" y="146.281" width="15.2507" height="15.3401" rx="2.37755" fill="white"/>
<rect x="25.299" y="146.757" width="14.2997" height="14.389" rx="1.90204" stroke="#B9B4B4" stroke-width="0.95102"/>
</g>
<g filter="url(#filter32_d_1600_13761)">
<rect x="41.9043" y="153.645" width="15.2507" height="15.3401" rx="2.37755" fill="white"/>
<rect x="42.3798" y="154.12" width="14.2997" height="14.3891" rx="1.90204" stroke="#B9B4B4" stroke-width="0.95102"/>
</g>
<g filter="url(#filter33_d_1600_13761)">
<rect x="58.9851" y="145.054" width="15.2507" height="15.3401" rx="2.37755" fill="white"/>
<rect x="59.4607" y="145.529" width="14.2997" height="14.3891" rx="1.90204" stroke="#B9B4B4" stroke-width="0.95102"/>
</g>
<g filter="url(#filter34_d_1600_13761)">
<rect x="76.066" y="136.464" width="15.2507" height="15.3401" rx="2.37755" fill="white"/>
<rect x="76.5415" y="136.939" width="14.2997" height="14.3891" rx="1.90204" stroke="#B9B4B4" stroke-width="0.95102"/>
</g>
<g filter="url(#filter35_d_1600_13761)">
<rect x="7.13265" y="164.689" width="15.2507" height="15.3401" rx="2.37755" fill="white"/>
<rect x="7.60816" y="165.165" width="14.2997" height="14.3891" rx="1.90204" stroke="#B9B4B4" stroke-width="0.95102"/>
</g>
<g filter="url(#filter36_d_1600_13761)">
<rect x="24.8235" y="164.075" width="15.2507" height="15.3401" rx="2.37755" fill="white"/>
<rect x="25.299" y="164.551" width="14.2997" height="14.3891" rx="1.90204" stroke="#B9B4B4" stroke-width="0.95102"/>
</g>
<g filter="url(#filter37_d_1600_13761)">
<rect x="58.9851" y="162.849" width="15.2507" height="15.3401" rx="2.37755" fill="white"/>
<rect x="59.4607" y="163.324" width="14.2997" height="14.3891" rx="1.90204" stroke="#B9B4B4" stroke-width="0.95102"/>
</g>
<g filter="url(#filter38_d_1600_13761)">
<rect x="76.066" y="154.258" width="15.2507" height="15.3401" rx="2.37755" fill="white"/>
<rect x="76.5415" y="154.733" width="14.2997" height="14.3891" rx="1.90204" stroke="#B9B4B4" stroke-width="0.95102"/>
</g>
<g filter="url(#filter39_d_1600_13761)">
<rect x="76.066" y="171.439" width="15.2507" height="15.3401" rx="2.37755" fill="white"/>
<rect x="76.5415" y="171.915" width="14.2997" height="14.389" rx="1.90204" stroke="#B9B4B4" stroke-width="0.95102"/>
</g>
<rect x="10.5801" y="196.029" width="77.846" height="11.5826" fill="#FCFCFC" stroke="black" stroke-width="0.237755"/>
<path d="M83.4967 204.166C83.5895 204.258 83.7401 204.258 83.8329 204.166L85.346 202.652C85.4388 202.56 85.4388 202.409 85.346 202.316C85.2531 202.223 85.1026 202.223 85.0097 202.316L83.6648 203.661L82.3198 202.316C82.227 202.223 82.0765 202.223 81.9836 202.316C81.8908 202.409 81.8908 202.56 81.9836 202.652L83.4967 204.166ZM83.427 200.265V203.997H83.9026V200.265H83.427Z" fill="black"/>
<path d="M15.8322 203.646C15.6626 203.646 15.4923 203.632 15.3211 203.605C15.1499 203.578 14.9858 203.54 14.8289 203.489V203.146C14.9922 203.2 15.1618 203.242 15.3377 203.27C15.5152 203.297 15.6825 203.311 15.8394 203.311C16.4829 203.311 16.8047 203.093 16.8047 202.657C16.8047 202.536 16.7785 202.437 16.7262 202.36C16.6739 202.28 16.5907 202.215 16.4766 202.165C16.364 202.112 16.2103 202.067 16.0153 202.029L15.8013 201.989C15.4447 201.919 15.184 201.806 15.0191 201.651C14.8543 201.494 14.7719 201.286 14.7719 201.026C14.7719 200.82 14.8234 200.643 14.9264 200.496C15.0294 200.348 15.1832 200.235 15.3876 200.156C15.5937 200.076 15.8473 200.037 16.1485 200.037C16.4702 200.037 16.7706 200.078 17.0496 200.16V200.503C16.7642 200.415 16.4647 200.372 16.1508 200.372C15.8227 200.372 15.5786 200.427 15.4186 200.536C15.26 200.645 15.1808 200.803 15.1808 201.009C15.1808 201.128 15.2038 201.227 15.2497 201.306C15.2957 201.386 15.371 201.451 15.4756 201.504C15.5802 201.556 15.7221 201.6 15.9012 201.637L16.1152 201.677C16.3767 201.728 16.5875 201.796 16.7476 201.882C16.9093 201.967 17.0266 202.072 17.0995 202.195C17.174 202.319 17.2112 202.466 17.2112 202.638C17.2112 202.85 17.1573 203.032 17.0496 203.185C16.9418 203.335 16.7841 203.45 16.5764 203.529C16.3704 203.607 16.1223 203.646 15.8322 203.646ZM20.0672 202.438H18.1723C18.1834 202.752 18.2722 202.98 18.4386 203.123C18.605 203.264 18.8563 203.334 19.1923 203.334C19.4078 203.334 19.6535 203.296 19.9293 203.22V203.532C19.6567 203.608 19.3936 203.646 19.14 203.646C18.6882 203.646 18.3467 203.537 18.1153 203.32C17.8838 203.101 17.7681 202.765 17.7681 202.312C17.7681 202.025 17.8141 201.783 17.906 201.584C17.9995 201.385 18.1335 201.234 18.3078 201.133C18.4838 201.031 18.6946 200.981 18.9403 200.981C19.3032 200.981 19.5814 201.095 19.7748 201.325C19.9697 201.555 20.0672 201.888 20.0672 202.324V202.438ZM18.9355 201.261C18.6914 201.261 18.5044 201.336 18.3744 201.487C18.246 201.636 18.1779 201.866 18.1699 202.176H19.6868C19.6789 201.864 19.6123 201.634 19.4871 201.485C19.3619 201.336 19.178 201.261 18.9355 201.261ZM20.7065 203.601V199.758H21.1059V203.601H20.7065ZM24.0886 202.438H22.1937C22.2048 202.752 22.2936 202.98 22.46 203.123C22.6264 203.264 22.8777 203.334 23.2137 203.334C23.4293 203.334 23.6749 203.296 23.9507 203.22V203.532C23.6781 203.608 23.415 203.646 23.1614 203.646C22.7096 203.646 22.3681 203.537 22.1367 203.32C21.9052 203.101 21.7895 202.765 21.7895 202.312C21.7895 202.025 21.8355 201.783 21.9274 201.584C22.0209 201.385 22.1549 201.234 22.3292 201.133C22.5052 201.031 22.716 200.981 22.9617 200.981C23.3246 200.981 23.6028 201.095 23.7962 201.325C23.9911 201.555 24.0886 201.888 24.0886 202.324V202.438ZM22.9569 201.261C22.7128 201.261 22.5258 201.336 22.3958 201.487C22.2674 201.636 22.1993 201.866 22.1913 202.176H23.7082C23.7003 201.864 23.6337 201.634 23.5085 201.485C23.3833 201.336 23.1994 201.261 22.9569 201.261ZM25.8644 203.646C25.4475 203.646 25.1281 203.535 24.9062 203.313C24.6859 203.089 24.5757 202.756 24.5757 202.312C24.5757 201.87 24.693 201.538 24.9276 201.316C25.1622 201.092 25.5046 200.981 25.9547 200.981C26.1861 200.981 26.3961 201.008 26.5848 201.064V201.394C26.4817 201.367 26.3827 201.347 26.2876 201.335C26.1925 201.321 26.0918 201.313 25.9856 201.313C25.648 201.313 25.3968 201.393 25.2319 201.554C25.0687 201.712 24.987 201.962 24.987 202.305C24.987 202.652 25.0639 202.907 25.2177 203.07C25.3714 203.234 25.6005 203.315 25.9048 203.315C26.0062 203.315 26.1108 203.306 26.2186 203.287C26.3264 203.268 26.4484 203.237 26.5848 203.194V203.525C26.3597 203.605 26.1196 203.646 25.8644 203.646ZM28.3872 203.311C28.4871 203.311 28.6091 203.295 28.7533 203.263V203.593C28.5948 203.628 28.4427 203.646 28.2969 203.646C27.9925 203.646 27.7603 203.571 27.6002 203.422C27.4401 203.272 27.3601 203.043 27.3601 202.738V201.351H26.8252V201.021H27.3601L27.4267 200.082H27.7595V201.021H28.7105V201.351H27.7595V202.664C27.7595 202.894 27.811 203.059 27.9141 203.161C28.0187 203.261 28.1764 203.311 28.3872 203.311ZM31.4166 200.981C31.667 200.981 31.8723 201.011 32.0324 201.071C32.194 201.131 32.3153 201.232 32.3961 201.373C32.4785 201.514 32.5198 201.704 32.5198 201.943V203.601H32.1821L32.1536 203.308H32.1275C32.0308 203.411 31.9056 203.493 31.7518 203.553C31.5996 203.613 31.4396 203.643 31.2715 203.643C31.0877 203.643 30.93 203.615 30.7984 203.558C30.6684 203.499 30.5694 203.417 30.5012 203.311C30.4346 203.204 30.4014 203.08 30.4014 202.937C30.4014 202.714 30.4822 202.541 30.6439 202.419C30.8071 202.295 31.0679 202.216 31.4261 202.181L32.1251 202.105V201.924C32.1251 201.761 32.0973 201.634 32.0419 201.544C31.9864 201.452 31.904 201.388 31.7946 201.351C31.6868 201.315 31.545 201.297 31.369 201.297C31.247 201.297 31.117 201.307 30.9791 201.328C30.8412 201.348 30.7081 201.38 30.5797 201.423V201.109C30.7001 201.068 30.8349 201.036 30.9839 201.014C31.1329 200.992 31.2771 200.981 31.4166 200.981ZM31.3619 203.349C31.5045 203.349 31.6416 203.322 31.7732 203.27C31.9048 203.216 32.0221 203.137 32.1251 203.032V202.364L31.4499 202.438C31.22 202.465 31.0552 202.516 30.9553 202.59C30.8571 202.665 30.8079 202.77 30.8079 202.906C30.8079 203.047 30.8539 203.157 30.9458 203.234C31.0378 203.311 31.1764 203.349 31.3619 203.349ZM35.586 203.601V200.419H34.2736V200.082H37.305V200.419H35.9925V203.601H35.586ZM39.4021 201.021H39.7992L38.2157 204.647H37.8187L38.2751 203.601H38.1753L37.0507 201.021H37.4787L38.4321 203.282L39.4021 201.021ZM40.2748 201.021H40.6125L40.641 201.323H40.6648C40.7646 201.215 40.8867 201.131 41.0309 201.071C41.1767 201.011 41.3352 200.981 41.5064 200.981C41.7331 200.981 41.9328 201.025 42.1056 201.114C42.2783 201.201 42.4146 201.34 42.5145 201.532C42.6159 201.722 42.6667 201.965 42.6667 202.26C42.6667 202.716 42.5454 203.062 42.3029 203.296C42.0604 203.529 41.7045 203.646 41.2354 203.646C41.0705 203.646 40.8835 203.63 40.6743 203.598V204.647H40.2748V201.021ZM41.2211 203.322C41.5746 203.322 41.8361 203.238 42.0057 203.07C42.1769 202.902 42.2625 202.643 42.2625 202.293C42.2625 201.643 41.9819 201.318 41.4208 201.318C41.275 201.318 41.1379 201.346 41.0095 201.401C40.8811 201.457 40.7694 201.544 40.6743 201.663V203.258C40.7488 203.279 40.8336 203.295 40.9287 203.306C41.0254 203.317 41.1228 203.322 41.2211 203.322ZM45.5191 202.438H43.6242C43.6353 202.752 43.724 202.98 43.8905 203.123C44.0569 203.264 44.3081 203.334 44.6442 203.334C44.8597 203.334 45.1054 203.296 45.3812 203.22V203.532C45.1086 203.608 44.8455 203.646 44.5918 203.646C44.1401 203.646 43.7985 203.537 43.5671 203.32C43.3357 203.101 43.22 202.765 43.22 202.312C43.22 202.025 43.266 201.783 43.3579 201.584C43.4514 201.385 43.5854 201.234 43.7597 201.133C43.9356 201.031 44.1465 200.981 44.3921 200.981C44.7551 200.981 45.0333 201.095 45.2267 201.325C45.4216 201.555 45.5191 201.888 45.5191 202.324V202.438ZM44.3874 201.261C44.1433 201.261 43.9562 201.336 43.8263 201.487C43.6979 201.636 43.6297 201.866 43.6218 202.176H45.1387C45.1308 201.864 45.0642 201.634 44.939 201.485C44.8138 201.336 44.6299 201.261 44.3874 201.261Z" fill="black"/>
<rect y="213.979" width="98.8248" height="19.0204" rx="1.42653" fill="#B9B4B4"/>
<path d="M33.0082 221.147H33.7206V226.073H32.955L30.0491 222.185V226.073H29.3368V221.147H30.1024L33.0082 225.035V221.147ZM36.5052 226.14C36.1346 226.14 35.8118 226.07 35.5366 225.93C35.2637 225.79 35.0518 225.581 34.9009 225.301C34.7522 225.021 34.6778 224.675 34.6778 224.262C34.6778 223.854 34.7511 223.511 34.8975 223.234C35.0462 222.954 35.257 222.745 35.53 222.605C35.8029 222.465 36.128 222.395 36.5052 222.395C37.0822 222.395 37.5304 222.553 37.85 222.868C38.1695 223.181 38.3293 223.646 38.3293 224.262C38.3293 224.669 38.2538 225.013 38.1029 225.294C37.952 225.574 37.739 225.785 37.4639 225.927C37.1909 226.069 36.8714 226.14 36.5052 226.14ZM36.5052 225.554C37.2286 225.554 37.5903 225.125 37.5903 224.266C37.5903 223.82 37.4971 223.495 37.3107 223.291C37.1243 223.084 36.8558 222.981 36.5052 222.981C36.1546 222.981 35.885 223.083 35.6964 223.287C35.51 223.491 35.4168 223.815 35.4168 224.259C35.4168 225.122 35.7796 225.554 36.5052 225.554ZM43.5791 226.136C42.7336 226.136 42.0812 225.933 41.6219 225.527C41.1647 225.119 40.9362 224.483 40.9362 223.62C40.9362 223.063 41.0416 222.596 41.2524 222.219C41.4632 221.839 41.7694 221.555 42.1711 221.367C42.5727 221.178 43.0587 221.084 43.629 221.084C43.8531 221.084 44.0639 221.096 44.2614 221.12C44.4589 221.145 44.6575 221.184 44.8572 221.237V221.859C44.4756 221.759 44.0817 221.709 43.6756 221.709C43.0276 221.709 42.5406 221.863 42.2144 222.169C41.8904 222.475 41.7284 222.954 41.7284 223.607C41.7284 224.277 41.8882 224.762 42.2077 225.061C42.5295 225.361 43.001 225.511 43.6223 225.511C43.8398 225.511 44.0473 225.496 44.2448 225.467C44.4423 225.439 44.6464 225.391 44.8572 225.324V225.95C44.46 226.074 44.034 226.136 43.5791 226.136ZM45.6662 220.694H46.4052V222.838H46.4418C46.6082 222.694 46.798 222.584 47.011 222.508C47.2262 222.433 47.4515 222.395 47.6867 222.395C48.1039 222.395 48.4334 222.514 48.6753 222.751C48.9171 222.987 49.0381 223.352 49.0381 223.846V226.073H48.2991V223.883C48.2991 223.577 48.2281 223.358 48.0861 223.227C47.9463 223.096 47.7422 223.031 47.4737 223.031C47.2739 223.031 47.0798 223.069 46.8912 223.144C46.7048 223.217 46.5428 223.326 46.4052 223.47V226.073H45.6662V220.694ZM51.3752 222.395C51.7568 222.395 52.0675 222.441 52.3072 222.532C52.5468 222.62 52.7266 222.769 52.8464 222.978C52.9662 223.186 53.0261 223.47 53.0261 223.83V226.073H52.407L52.3538 225.684H52.3138C52.1784 225.826 52.0076 225.937 51.8012 226.017C51.5948 226.094 51.3752 226.133 51.1422 226.133C50.8759 226.133 50.6484 226.092 50.4598 226.01C50.2712 225.926 50.128 225.808 50.0304 225.657C49.9328 225.506 49.884 225.329 49.884 225.125C49.884 224.803 50.0038 224.554 50.2434 224.379C50.4853 224.201 50.8692 224.089 51.3951 224.043L52.3005 223.953V223.78C52.3005 223.567 52.2639 223.4 52.1907 223.281C52.1174 223.161 52.0065 223.076 51.8578 223.028C51.7113 222.979 51.5161 222.954 51.272 222.954C51.1033 222.954 50.9202 222.969 50.7228 222.998C50.5275 223.026 50.34 223.07 50.1602 223.127V222.575C50.3377 222.517 50.5341 222.473 50.7494 222.442C50.9668 222.411 51.1754 222.395 51.3752 222.395ZM51.3385 225.621C51.5161 225.621 51.688 225.589 51.8545 225.527C52.0209 225.463 52.1696 225.368 52.3005 225.241V224.392L51.4517 224.476C51.1566 224.509 50.9458 224.573 50.8193 224.669C50.6928 224.762 50.6296 224.895 50.6296 225.068C50.6296 225.243 50.6884 225.38 50.806 225.477C50.9236 225.573 51.1011 225.621 51.3385 225.621ZM54.0787 222.452H54.6911L54.7377 222.848H54.781C54.9519 222.704 55.1483 222.593 55.3702 222.515C55.5921 222.435 55.824 222.395 56.0658 222.395C56.4986 222.395 56.837 222.514 57.0811 222.751C57.3274 222.989 57.4505 223.359 57.4505 223.863V226.073H56.7116V223.893C56.7116 223.585 56.6417 223.364 56.5019 223.231C56.3621 223.095 56.1568 223.028 55.8861 223.028C55.693 223.028 55.5011 223.064 55.3103 223.137C55.1216 223.208 54.9574 223.317 54.8176 223.464V226.073H54.0787V222.452ZM59.8575 227.604C59.6422 227.604 59.4203 227.589 59.1918 227.558C58.9654 227.529 58.7502 227.483 58.546 227.421V226.832C58.9921 226.963 59.4148 227.029 59.8142 227.029C60.1182 227.029 60.3623 226.992 60.5465 226.919C60.7329 226.845 60.8694 226.729 60.9559 226.569C61.0447 226.412 61.0891 226.201 61.0891 225.937V225.664H61.0525C60.9082 225.806 60.7373 225.915 60.5399 225.99C60.3424 226.065 60.1238 226.103 59.8841 226.103C59.5823 226.103 59.3116 226.04 59.072 225.913C58.8323 225.785 58.6426 225.588 58.5028 225.324C58.3652 225.06 58.2964 224.732 58.2964 224.339C58.2964 223.707 58.475 223.225 58.8323 222.894C59.1896 222.562 59.7166 222.395 60.4134 222.395C60.6552 222.395 60.8982 222.412 61.1423 222.445C61.3886 222.478 61.6172 222.526 61.828 222.588V225.804C61.828 226.225 61.7559 226.568 61.6117 226.832C61.4696 227.098 61.2533 227.294 60.9626 227.418C60.6741 227.542 60.3057 227.604 59.8575 227.604ZM60.1138 225.497C60.298 225.497 60.4744 225.466 60.643 225.404C60.8139 225.34 60.9626 225.242 61.0891 225.111V223.058C60.8649 223 60.6175 222.971 60.3468 222.971C59.9119 222.971 59.5846 223.079 59.3649 223.294C59.1452 223.509 59.0353 223.836 59.0353 224.276C59.0353 224.704 59.1308 225.015 59.3216 225.208C59.5147 225.401 59.7787 225.497 60.1138 225.497ZM66.0855 224.482H63.4593C63.4726 224.744 63.5292 224.956 63.629 225.118C63.7289 225.278 63.8787 225.395 64.0784 225.471C64.2781 225.546 64.5344 225.584 64.8473 225.584C65.158 225.584 65.5019 225.536 65.8791 225.441V225.99C65.4864 226.09 65.108 226.14 64.7441 226.14C64.0695 226.14 63.5636 225.988 63.2263 225.684C62.8912 225.378 62.7237 224.906 62.7237 224.269C62.7237 223.87 62.7913 223.53 62.9267 223.251C63.0621 222.971 63.2573 222.759 63.5125 222.615C63.7699 222.468 64.0795 222.395 64.4412 222.395C64.9738 222.395 65.381 222.558 65.6628 222.884C65.9446 223.208 66.0855 223.677 66.0855 224.289V224.482ZM64.4312 222.884C64.1205 222.884 63.8831 222.979 63.7189 223.167C63.5547 223.354 63.467 223.643 63.4559 224.036H65.3898C65.381 223.643 65.2966 223.354 65.1369 223.167C64.9771 222.979 64.7419 222.884 64.4312 222.884ZM68.0235 226.14C67.5686 226.14 67.1558 226.087 66.7852 225.98V225.444C67.1825 225.555 67.5963 225.611 68.0268 225.611C68.3597 225.611 68.5993 225.566 68.7458 225.477C68.8922 225.386 68.9655 225.254 68.9655 225.081C68.9655 224.988 68.9488 224.912 68.9155 224.852C68.8822 224.79 68.8257 224.738 68.7458 224.699C68.6659 224.656 68.556 224.624 68.4162 224.602L67.7738 224.502C67.401 224.442 67.1314 224.329 66.965 224.163C66.8008 223.996 66.7187 223.773 66.7187 223.494C66.7187 223.154 66.8585 222.887 67.1381 222.691C67.4199 222.494 67.8493 222.395 68.4262 222.395C68.6082 222.395 68.789 222.407 68.9688 222.432C69.1507 222.454 69.3183 222.487 69.4714 222.532V223.064C69.1341 222.971 68.7868 222.924 68.4296 222.924C68.0634 222.924 67.8049 222.972 67.654 223.068C67.5031 223.163 67.4277 223.295 67.4277 223.464C67.4277 223.59 67.4665 223.693 67.5442 223.773C67.6218 223.851 67.7605 223.907 67.9602 223.943L68.6026 224.043C68.9732 224.101 69.2451 224.207 69.4181 224.362C69.5912 224.518 69.6778 224.743 69.6778 225.038C69.6778 225.267 69.6156 225.463 69.4914 225.627C69.3693 225.791 69.184 225.918 68.9355 226.007C68.6892 226.095 68.3852 226.14 68.0235 226.14Z" fill="white"/>
<rect x="7.37041" y="6.4194" width="83.6898" height="15.2163" rx="4.51735" fill="white" stroke="black" stroke-width="0.47551"/>
<path d="M30.368 17.0486C29.8487 17.0486 29.3639 16.9743 28.9134 16.8256V16.2131C29.1397 16.2886 29.3827 16.3463 29.6424 16.3862C29.9042 16.4262 30.1494 16.4461 30.378 16.4461C30.8062 16.4461 31.1202 16.3784 31.32 16.2431C31.5219 16.1055 31.6229 15.9036 31.6229 15.6373C31.6229 15.4886 31.5896 15.3666 31.523 15.2711C31.4586 15.1735 31.3544 15.0925 31.2101 15.0282C31.0659 14.9638 30.8684 14.9072 30.6176 14.8584L30.2848 14.7918C29.7744 14.692 29.4027 14.5311 29.1697 14.3092C28.9367 14.0873 28.8202 13.791 28.8202 13.4205C28.8202 12.9678 28.9911 12.6172 29.3328 12.3686C29.6768 12.1201 30.1816 11.9958 30.8473 11.9958C31.3133 11.9958 31.7427 12.0524 32.1355 12.1656V12.7814C31.9424 12.7237 31.736 12.6793 31.5163 12.6482C31.2967 12.6149 31.077 12.5983 30.8573 12.5983C29.9985 12.5983 29.5691 12.8624 29.5691 13.3905C29.5691 13.537 29.598 13.659 29.6557 13.7566C29.7134 13.8521 29.8077 13.9319 29.9386 13.9963C30.0695 14.0606 30.2493 14.1161 30.4778 14.1627L30.8107 14.226C31.1835 14.2992 31.4842 14.3968 31.7127 14.5189C31.9435 14.6409 32.111 14.7907 32.2153 14.9682C32.3196 15.1458 32.3718 15.3566 32.3718 15.6007C32.3718 15.9047 32.293 16.1654 32.1355 16.3829C31.9779 16.6003 31.7482 16.7657 31.4464 16.8788C31.1469 16.992 30.7874 17.0486 30.368 17.0486ZM34.9668 16.4461C35.0378 16.4461 35.1099 16.4417 35.1831 16.4328C35.2564 16.4239 35.3473 16.4084 35.4561 16.3862V16.972C35.2297 17.0253 35.0045 17.0519 34.7804 17.0519C34.3343 17.0519 33.9948 16.9432 33.7618 16.7257C33.5288 16.5083 33.4123 16.1798 33.4123 15.7405V13.9597H32.69V13.3639H33.4123L33.5388 12.0591H34.1513V13.3639H35.4061V13.9597H34.1513V15.604C34.1513 15.9036 34.2178 16.1188 34.351 16.2497C34.4841 16.3807 34.6894 16.4461 34.9668 16.4461ZM37.3892 13.3073C37.7709 13.3073 38.0815 13.3528 38.3212 13.4438C38.5608 13.5325 38.7406 13.6812 38.8604 13.8898C38.9802 14.0984 39.0402 14.3824 39.0402 14.7419V16.9854H38.421L38.3678 16.5959H38.3278C38.1925 16.7379 38.0216 16.8489 37.8152 16.9288C37.6089 17.0064 37.3892 17.0453 37.1562 17.0453C36.8899 17.0453 36.6625 17.0042 36.4738 16.9221C36.2852 16.8378 36.1421 16.7202 36.0444 16.5693C35.9468 16.4184 35.898 16.2409 35.898 16.0367C35.898 15.7149 36.0178 15.4664 36.2575 15.2911C36.4994 15.1136 36.8832 15.0015 37.4092 14.9549L38.3145 14.8651V14.692C38.3145 14.4789 38.2779 14.3125 38.2047 14.1927C38.1315 14.0729 38.0205 13.9885 37.8718 13.9397C37.7254 13.8909 37.5301 13.8665 37.286 13.8665C37.1174 13.8665 36.9343 13.8809 36.7368 13.9098C36.5415 13.9386 36.354 13.9819 36.1743 14.0396V13.487C36.3518 13.4293 36.5482 13.3849 36.7634 13.3539C36.9809 13.3228 37.1895 13.3073 37.3892 13.3073ZM37.3526 16.5327C37.5301 16.5327 37.7021 16.5016 37.8685 16.4395C38.0349 16.3751 38.1836 16.2797 38.3145 16.1532V15.3044L37.4657 15.3876C37.1706 15.4209 36.9598 15.4853 36.8333 15.5807C36.7068 15.6739 36.6436 15.807 36.6436 15.9801C36.6436 16.1554 36.7024 16.2919 36.82 16.3895C36.9376 16.485 37.1151 16.5327 37.3526 16.5327ZM40.0927 13.3639H40.7018L40.7584 13.8265H40.8017C40.9326 13.669 41.1013 13.5458 41.3076 13.4571C41.5162 13.3683 41.7337 13.3239 41.96 13.3239C42.0888 13.3239 42.2097 13.335 42.3229 13.3572V14.0196C42.2141 13.9996 42.081 13.9896 41.9234 13.9896C41.7282 13.9896 41.5296 14.0274 41.3276 14.1028C41.1257 14.1783 40.9604 14.2903 40.8317 14.439V16.9854H40.0927V13.3639ZM46.1245 16.9854V12.6682H44.3137V12.0591H48.6875V12.6682H46.8767V16.9854H46.1245ZM50.383 17.0519C50.0125 17.0519 49.6896 16.982 49.4144 16.8422C49.1415 16.7024 48.9296 16.4927 48.7787 16.2131C48.63 15.9335 48.5557 15.5874 48.5557 15.1746C48.5557 14.7663 48.6289 14.4235 48.7753 14.1461C48.924 13.8665 49.1348 13.6568 49.4078 13.517C49.6807 13.3772 50.0058 13.3073 50.383 13.3073C50.96 13.3073 51.4082 13.4648 51.7278 13.7799C52.0473 14.0928 52.2071 14.5577 52.2071 15.1746C52.2071 15.5807 52.1317 15.9246 51.9808 16.2065C51.8299 16.4861 51.6168 16.6969 51.3417 16.8389C51.0687 16.9809 50.7492 17.0519 50.383 17.0519ZM50.383 16.4661C51.1065 16.4661 51.4682 16.0367 51.4682 15.1779C51.4682 14.7319 51.375 14.4068 51.1886 14.2027C51.0022 13.9963 50.7337 13.8931 50.383 13.8931C50.0324 13.8931 49.7628 13.9952 49.5742 14.1993C49.3878 14.4035 49.2946 14.7275 49.2946 15.1713C49.2946 16.0345 49.6574 16.4661 50.383 16.4661ZM54.4462 17.0453C54.0113 17.0453 53.6706 16.9288 53.4243 16.6958C53.178 16.4605 53.0549 16.0944 53.0549 15.5973V13.3639H53.7938V15.5574C53.7938 15.8614 53.8626 16.08 54.0002 16.2131C54.14 16.3463 54.3386 16.4128 54.596 16.4128C54.789 16.4128 54.9788 16.3762 55.1652 16.303C55.3538 16.2275 55.5169 16.1177 55.6545 15.9735V13.3639H56.3934V16.9854H55.781L55.7344 16.5992H55.6977C55.5269 16.7435 55.3338 16.8544 55.1186 16.9321C54.9033 17.0075 54.6792 17.0453 54.4462 17.0453ZM57.4897 13.3639H58.0988L58.1554 13.8265H58.1987C58.3296 13.669 58.4983 13.5458 58.7046 13.4571C58.9132 13.3683 59.1307 13.3239 59.357 13.3239C59.4857 13.3239 59.6067 13.335 59.7198 13.3572V14.0196C59.6111 13.9996 59.478 13.9896 59.3204 13.9896C59.1251 13.9896 58.9265 14.0274 58.7246 14.1028C58.5227 14.1783 58.3574 14.2903 58.2286 14.439V16.9854H57.4897V13.3639ZM61.3903 17.0519C60.9354 17.0519 60.5226 16.9987 60.152 16.8922V16.3563C60.5493 16.4672 60.9631 16.5227 61.3936 16.5227C61.7265 16.5227 61.9661 16.4783 62.1126 16.3895C62.259 16.2986 62.3323 16.1665 62.3323 15.9934C62.3323 15.9002 62.3156 15.8237 62.2823 15.7638C62.249 15.7016 62.1925 15.6506 62.1126 15.6107C62.0327 15.5685 61.9228 15.5363 61.783 15.5141L61.1406 15.4143C60.7678 15.3544 60.4982 15.2412 60.3318 15.0748C60.1676 14.9083 60.0855 14.6853 60.0855 14.4057C60.0855 14.0662 60.2253 13.7988 60.5049 13.6035C60.7867 13.406 61.2161 13.3073 61.793 13.3073C61.975 13.3073 62.1558 13.3195 62.3356 13.3439C62.5175 13.3661 62.6851 13.3994 62.8382 13.4438V13.9763C62.5009 13.8831 62.1536 13.8365 61.7964 13.8365C61.4302 13.8365 61.1717 13.8842 61.0208 13.9797C60.8699 14.0751 60.7945 14.2071 60.7945 14.3758C60.7945 14.5022 60.8333 14.6054 60.911 14.6853C60.9886 14.763 61.1273 14.8196 61.327 14.8551L61.9694 14.9549C62.34 15.0126 62.6119 15.1191 62.7849 15.2745C62.958 15.4298 63.0446 15.655 63.0446 15.9502C63.0446 16.1787 62.9824 16.3751 62.8582 16.5393C62.7361 16.7035 62.5508 16.83 62.3023 16.9188C62.056 17.0075 61.752 17.0519 61.3903 17.0519ZM69.521 16.9854L68.9352 15.4775H66.6352L66.0493 16.9854H65.3037L67.2576 12.0591H68.3227L70.2766 16.9854H69.521ZM66.8648 14.8917H68.7055L67.7868 12.5284L66.8648 14.8917Z" fill="black"/>
</g>
<defs>
<filter id="filter0_d_1600_13761" x="5.23061" y="37.0596" width="19.0548" height="19.1439" filterUnits="userSpaceOnUse" color-interpolation-filters="sRGB">
<feFlood flood-opacity="0" result="BackgroundImageFix"/>
<feColorMatrix in="SourceAlpha" type="matrix" values="0 0 0 0 0 0 0 0 0 0 0 0 0 0 0 0 0 0 127 0" result="hardAlpha"/>
<feOffset dy="1.90204"/>
<feGaussianBlur stdDeviation="0.95102"/>
<feColorMatrix type="matrix" values="0 0 0 0 0 0 0 0 0 0 0 0 0 0 0 0 0 0 0.25 0"/>
<feBlend mode="normal" in2="BackgroundImageFix" result="effect1_dropShadow_1600_13761"/>
<feBlend mode="normal" in="SourceGraphic" in2="effect1_dropShadow_1600_13761" result="shape"/>
</filter>
<filter id="filter1_d_1600_13761" x="22.9215" y="36.4463" width="19.0548" height="19.1439" filterUnits="userSpaceOnUse" color-interpolation-filters="sRGB">
<feFlood flood-opacity="0" result="BackgroundImageFix"/>
<feColorMatrix in="SourceAlpha" type="matrix" values="0 0 0 0 0 0 0 0 0 0 0 0 0 0 0 0 0 0 127 0" result="hardAlpha"/>
<feOffset dy="1.90204"/>
<feGaussianBlur stdDeviation="0.95102"/>
<feColorMatrix type="matrix" values="0 0 0 0 0 0 0 0 0 0 0 0 0 0 0 0 0 0 0.25 0"/>
<feBlend mode="normal" in2="BackgroundImageFix" result="effect1_dropShadow_1600_13761"/>
<feBlend mode="normal" in="SourceGraphic" in2="effect1_dropShadow_1600_13761" result="shape"/>
</filter>
<filter id="filter2_d_1600_13761" x="40.0023" y="43.8096" width="19.0548" height="19.1439" filterUnits="userSpaceOnUse" color-interpolation-filters="sRGB">
<feFlood flood-opacity="0" result="BackgroundImageFix"/>
<feColorMatrix in="SourceAlpha" type="matrix" values="0 0 0 0 0 0 0 0 0 0 0 0 0 0 0 0 0 0 127 0" result="hardAlpha"/>
<feOffset dy="1.90204"/>
<feGaussianBlur stdDeviation="0.95102"/>
<feColorMatrix type="matrix" values="0 0 0 0 0 0 0 0 0 0 0 0 0 0 0 0 0 0 0.25 0"/>
<feBlend mode="normal" in2="BackgroundImageFix" result="effect1_dropShadow_1600_13761"/>
<feBlend mode="normal" in="SourceGraphic" in2="effect1_dropShadow_1600_13761" result="shape"/>
</filter>
<filter id="filter3_d_1600_13761" x="57.0831" y="35.2188" width="19.0548" height="19.1439" filterUnits="userSpaceOnUse" color-interpolation-filters="sRGB">
<feFlood flood-opacity="0" result="BackgroundImageFix"/>
<feColorMatrix in="SourceAlpha" type="matrix" values="0 0 0 0 0 0 0 0 0 0 0 0 0 0 0 0 0 0 127 0" result="hardAlpha"/>
<feOffset dy="1.90204"/>
<feGaussianBlur stdDeviation="0.95102"/>
<feColorMatrix type="matrix" values="0 0 0 0 0 0 0 0 0 0 0 0 0 0 0 0 0 0 0.25 0"/>
<feBlend mode="normal" in2="BackgroundImageFix" result="effect1_dropShadow_1600_13761"/>
<feBlend mode="normal" in="SourceGraphic" in2="effect1_dropShadow_1600_13761" result="shape"/>
</filter>
<filter id="filter4_d_1600_13761" x="74.1639" y="26.6289" width="19.0548" height="19.1439" filterUnits="userSpaceOnUse" color-interpolation-filters="sRGB">
<feFlood flood-opacity="0" result="BackgroundImageFix"/>
<feColorMatrix in="SourceAlpha" type="matrix" values="0 0 0 0 0 0 0 0 0 0 0 0 0 0 0 0 0 0 127 0" result="hardAlpha"/>
<feOffset dy="1.90204"/>
<feGaussianBlur stdDeviation="0.95102"/>
<feColorMatrix type="matrix" values="0 0 0 0 0 0 0 0 0 0 0 0 0 0 0 0 0 0 0.25 0"/>
<feBlend mode="normal" in2="BackgroundImageFix" result="effect1_dropShadow_1600_13761"/>
<feBlend mode="normal" in="SourceGraphic" in2="effect1_dropShadow_1600_13761" result="shape"/>
</filter>
<filter id="filter5_d_1600_13761" x="5.23061" y="54.8545" width="19.0548" height="19.1439" filterUnits="userSpaceOnUse" color-interpolation-filters="sRGB">
<feFlood flood-opacity="0" result="BackgroundImageFix"/>
<feColorMatrix in="SourceAlpha" type="matrix" values="0 0 0 0 0 0 0 0 0 0 0 0 0 0 0 0 0 0 127 0" result="hardAlpha"/>
<feOffset dy="1.90204"/>
<feGaussianBlur stdDeviation="0.95102"/>
<feColorMatrix type="matrix" values="0 0 0 0 0 0 0 0 0 0 0 0 0 0 0 0 0 0 0.25 0"/>
<feBlend mode="normal" in2="BackgroundImageFix" result="effect1_dropShadow_1600_13761"/>
<feBlend mode="normal" in="SourceGraphic" in2="effect1_dropShadow_1600_13761" result="shape"/>
</filter>
<filter id="filter6_d_1600_13761" x="5.84064" y="72.8193" width="19.0548" height="19.1439" filterUnits="userSpaceOnUse" color-interpolation-filters="sRGB">
<feFlood flood-opacity="0" result="BackgroundImageFix"/>
<feColorMatrix in="SourceAlpha" type="matrix" values="0 0 0 0 0 0 0 0 0 0 0 0 0 0 0 0 0 0 127 0" result="hardAlpha"/>
<feOffset dy="1.90204"/>
<feGaussianBlur stdDeviation="0.95102"/>
<feColorMatrix type="matrix" values="0 0 0 0 0 0 0 0 0 0 0 0 0 0 0 0 0 0 0.25 0"/>
<feBlend mode="normal" in2="BackgroundImageFix" result="effect1_dropShadow_1600_13761"/>
<feBlend mode="normal" in="SourceGraphic" in2="effect1_dropShadow_1600_13761" result="shape"/>
</filter>
<filter id="filter7_d_1600_13761" x="22.9215" y="54.2402" width="19.0548" height="19.1439" filterUnits="userSpaceOnUse" color-interpolation-filters="sRGB">
<feFlood flood-opacity="0" result="BackgroundImageFix"/>
<feColorMatrix in="SourceAlpha" type="matrix" values="0 0 0 0 0 0 0 0 0 0 0 0 0 0 0 0 0 0 127 0" result="hardAlpha"/>
<feOffset dy="1.90204"/>
<feGaussianBlur stdDeviation="0.95102"/>
<feColorMatrix type="matrix" values="0 0 0 0 0 0 0 0 0 0 0 0 0 0 0 0 0 0 0.25 0"/>
<feBlend mode="normal" in2="BackgroundImageFix" result="effect1_dropShadow_1600_13761"/>
<feBlend mode="normal" in="SourceGraphic" in2="effect1_dropShadow_1600_13761" result="shape"/>
</filter>
<filter id="filter8_d_1600_13761" x="40.0023" y="61.6045" width="19.0548" height="19.1439" filterUnits="userSpaceOnUse" color-interpolation-filters="sRGB">
<feFlood flood-opacity="0" result="BackgroundImageFix"/>
<feColorMatrix in="SourceAlpha" type="matrix" values="0 0 0 0 0 0 0 0 0 0 0 0 0 0 0 0 0 0 127 0" result="hardAlpha"/>
<feOffset dy="1.90204"/>
<feGaussianBlur stdDeviation="0.95102"/>
<feColorMatrix type="matrix" values="0 0 0 0 0 0 0 0 0 0 0 0 0 0 0 0 0 0 0.25 0"/>
<feBlend mode="normal" in2="BackgroundImageFix" result="effect1_dropShadow_1600_13761"/>
<feBlend mode="normal" in="SourceGraphic" in2="effect1_dropShadow_1600_13761" result="shape"/>
</filter>
<filter id="filter9_d_1600_13761" x="57.0831" y="53.0137" width="19.0548" height="19.1439" filterUnits="userSpaceOnUse" color-interpolation-filters="sRGB">
<feFlood flood-opacity="0" result="BackgroundImageFix"/>
<feColorMatrix in="SourceAlpha" type="matrix" values="0 0 0 0 0 0 0 0 0 0 0 0 0 0 0 0 0 0 127 0" result="hardAlpha"/>
<feOffset dy="1.90204"/>
<feGaussianBlur stdDeviation="0.95102"/>
<feColorMatrix type="matrix" values="0 0 0 0 0 0 0 0 0 0 0 0 0 0 0 0 0 0 0.25 0"/>
<feBlend mode="normal" in2="BackgroundImageFix" result="effect1_dropShadow_1600_13761"/>
<feBlend mode="normal" in="SourceGraphic" in2="effect1_dropShadow_1600_13761" result="shape"/>
</filter>
<filter id="filter10_d_1600_13761" x="74.1639" y="44.4229" width="19.0548" height="19.1439" filterUnits="userSpaceOnUse" color-interpolation-filters="sRGB">
<feFlood flood-opacity="0" result="BackgroundImageFix"/>
<feColorMatrix in="SourceAlpha" type="matrix" values="0 0 0 0 0 0 0 0 0 0 0 0 0 0 0 0 0 0 127 0" result="hardAlpha"/>
<feOffset dy="1.90204"/>
<feGaussianBlur stdDeviation="0.95102"/>
<feColorMatrix type="matrix" values="0 0 0 0 0 0 0 0 0 0 0 0 0 0 0 0 0 0 0.25 0"/>
<feBlend mode="normal" in2="BackgroundImageFix" result="effect1_dropShadow_1600_13761"/>
<feBlend mode="normal" in="SourceGraphic" in2="effect1_dropShadow_1600_13761" result="shape"/>
</filter>
<filter id="filter11_d_1600_13761" x="22.9215" y="72.6494" width="19.0548" height="19.1439" filterUnits="userSpaceOnUse" color-interpolation-filters="sRGB">
<feFlood flood-opacity="0" result="BackgroundImageFix"/>
<feColorMatrix in="SourceAlpha" type="matrix" values="0 0 0 0 0 0 0 0 0 0 0 0 0 0 0 0 0 0 127 0" result="hardAlpha"/>
<feOffset dy="1.90204"/>
<feGaussianBlur stdDeviation="0.95102"/>
<feColorMatrix type="matrix" values="0 0 0 0 0 0 0 0 0 0 0 0 0 0 0 0 0 0 0.25 0"/>
<feBlend mode="normal" in2="BackgroundImageFix" result="effect1_dropShadow_1600_13761"/>
<feBlend mode="normal" in="SourceGraphic" in2="effect1_dropShadow_1600_13761" result="shape"/>
</filter>
<filter id="filter12_d_1600_13761" x="40.0023" y="80.0117" width="19.0548" height="19.1439" filterUnits="userSpaceOnUse" color-interpolation-filters="sRGB">
<feFlood flood-opacity="0" result="BackgroundImageFix"/>
<feColorMatrix in="SourceAlpha" type="matrix" values="0 0 0 0 0 0 0 0 0 0 0 0 0 0 0 0 0 0 127 0" result="hardAlpha"/>
<feOffset dy="1.90204"/>
<feGaussianBlur stdDeviation="0.95102"/>
<feColorMatrix type="matrix" values="0 0 0 0 0 0 0 0 0 0 0 0 0 0 0 0 0 0 0.25 0"/>
<feBlend mode="normal" in2="BackgroundImageFix" result="effect1_dropShadow_1600_13761"/>
<feBlend mode="normal" in="SourceGraphic" in2="effect1_dropShadow_1600_13761" result="shape"/>
</filter>
<filter id="filter13_d_1600_13761" x="40.0023" y="97.7041" width="19.0548" height="19.1439" filterUnits="userSpaceOnUse" color-interpolation-filters="sRGB">
<feFlood flood-opacity="0" result="BackgroundImageFix"/>
<feColorMatrix in="SourceAlpha" type="matrix" values="0 0 0 0 0 0 0 0 0 0 0 0 0 0 0 0 0 0 127 0" result="hardAlpha"/>
<feOffset dy="1.90204"/>
<feGaussianBlur stdDeviation="0.95102"/>
<feColorMatrix type="matrix" values="0 0 0 0 0 0 0 0 0 0 0 0 0 0 0 0 0 0 0.25 0"/>
<feBlend mode="normal" in2="BackgroundImageFix" result="effect1_dropShadow_1600_13761"/>
<feBlend mode="normal" in="SourceGraphic" in2="effect1_dropShadow_1600_13761" result="shape"/>
</filter>
<filter id="filter14_d_1600_13761" x="57.0831" y="71.4219" width="19.0548" height="19.1439" filterUnits="userSpaceOnUse" color-interpolation-filters="sRGB">
<feFlood flood-opacity="0" result="BackgroundImageFix"/>
<feColorMatrix in="SourceAlpha" type="matrix" values="0 0 0 0 0 0 0 0 0 0 0 0 0 0 0 0 0 0 127 0" result="hardAlpha"/>
<feOffset dy="1.90204"/>
<feGaussianBlur stdDeviation="0.95102"/>
<feColorMatrix type="matrix" values="0 0 0 0 0 0 0 0 0 0 0 0 0 0 0 0 0 0 0.25 0"/>
<feBlend mode="normal" in2="BackgroundImageFix" result="effect1_dropShadow_1600_13761"/>
<feBlend mode="normal" in="SourceGraphic" in2="effect1_dropShadow_1600_13761" result="shape"/>
</filter>
<filter id="filter15_d_1600_13761" x="74.1639" y="62.8311" width="19.0548" height="19.1439" filterUnits="userSpaceOnUse" color-interpolation-filters="sRGB">
<feFlood flood-opacity="0" result="BackgroundImageFix"/>
<feColorMatrix in="SourceAlpha" type="matrix" values="0 0 0 0 0 0 0 0 0 0 0 0 0 0 0 0 0 0 127 0" result="hardAlpha"/>
<feOffset dy="1.90204"/>
<feGaussianBlur stdDeviation="0.95102"/>
<feColorMatrix type="matrix" values="0 0 0 0 0 0 0 0 0 0 0 0 0 0 0 0 0 0 0.25 0"/>
<feBlend mode="normal" in2="BackgroundImageFix" result="effect1_dropShadow_1600_13761"/>
<feBlend mode="normal" in="SourceGraphic" in2="effect1_dropShadow_1600_13761" result="shape"/>
</filter>
<filter id="filter16_d_1600_13761" x="5.23061" y="91.6699" width="19.0548" height="19.1439" filterUnits="userSpaceOnUse" color-interpolation-filters="sRGB">
<feFlood flood-opacity="0" result="BackgroundImageFix"/>
<feColorMatrix in="SourceAlpha" type="matrix" values="0 0 0 0 0 0 0 0 0 0 0 0 0 0 0 0 0 0 127 0" result="hardAlpha"/>
<feOffset dy="1.90204"/>
<feGaussianBlur stdDeviation="0.95102"/>
<feColorMatrix type="matrix" values="0 0 0 0 0 0 0 0 0 0 0 0 0 0 0 0 0 0 0.25 0"/>
<feBlend mode="normal" in2="BackgroundImageFix" result="effect1_dropShadow_1600_13761"/>
<feBlend mode="normal" in="SourceGraphic" in2="effect1_dropShadow_1600_13761" result="shape"/>
</filter>
<filter id="filter17_d_1600_13761" x="22.9215" y="91.0566" width="19.0548" height="19.1439" filterUnits="userSpaceOnUse" color-interpolation-filters="sRGB">
<feFlood flood-opacity="0" result="BackgroundImageFix"/>
<feColorMatrix in="SourceAlpha" type="matrix" values="0 0 0 0 0 0 0 0 0 0 0 0 0 0 0 0 0 0 127 0" result="hardAlpha"/>
<feOffset dy="1.90204"/>
<feGaussianBlur stdDeviation="0.95102"/>
<feColorMatrix type="matrix" values="0 0 0 0 0 0 0 0 0 0 0 0 0 0 0 0 0 0 0.25 0"/>
<feBlend mode="normal" in2="BackgroundImageFix" result="effect1_dropShadow_1600_13761"/>
<feBlend mode="normal" in="SourceGraphic" in2="effect1_dropShadow_1600_13761" result="shape"/>
</filter>
<filter id="filter18_d_1600_13761" x="57.0831" y="89.8301" width="19.0548" height="19.1439" filterUnits="userSpaceOnUse" color-interpolation-filters="sRGB">
<feFlood flood-opacity="0" result="BackgroundImageFix"/>
<feColorMatrix in="SourceAlpha" type="matrix" values="0 0 0 0 0 0 0 0 0 0 0 0 0 0 0 0 0 0 127 0" result="hardAlpha"/>
<feOffset dy="1.90204"/>
<feGaussianBlur stdDeviation="0.95102"/>
<feColorMatrix type="matrix" values="0 0 0 0 0 0 0 0 0 0 0 0 0 0 0 0 0 0 0.25 0"/>
<feBlend mode="normal" in2="BackgroundImageFix" result="effect1_dropShadow_1600_13761"/>
<feBlend mode="normal" in="SourceGraphic" in2="effect1_dropShadow_1600_13761" result="shape"/>
</filter>
<filter id="filter19_d_1600_13761" x="74.1639" y="81.2393" width="19.0548" height="19.1439" filterUnits="userSpaceOnUse" color-interpolation-filters="sRGB">
<feFlood flood-opacity="0" result="BackgroundImageFix"/>
<feColorMatrix in="SourceAlpha" type="matrix" values="0 0 0 0 0 0 0 0 0 0 0 0 0 0 0 0 0 0 127 0" result="hardAlpha"/>
<feOffset dy="1.90204"/>
<feGaussianBlur stdDeviation="0.95102"/>
<feColorMatrix type="matrix" values="0 0 0 0 0 0 0 0 0 0 0 0 0 0 0 0 0 0 0.25 0"/>
<feBlend mode="normal" in2="BackgroundImageFix" result="effect1_dropShadow_1600_13761"/>
<feBlend mode="normal" in="SourceGraphic" in2="effect1_dropShadow_1600_13761" result="shape"/>
</filter>
<filter id="filter20_d_1600_13761" x="74.1639" y="98.9482" width="19.0548" height="19.1439" filterUnits="userSpaceOnUse" color-interpolation-filters="sRGB">
<feFlood flood-opacity="0" result="BackgroundImageFix"/>
<feColorMatrix in="SourceAlpha" type="matrix" values="0 0 0 0 0 0 0 0 0 0 0 0 0 0 0 0 0 0 127 0" result="hardAlpha"/>
<feOffset dy="1.90204"/>
<feGaussianBlur stdDeviation="0.95102"/>
<feColorMatrix type="matrix" values="0 0 0 0 0 0 0 0 0 0 0 0 0 0 0 0 0 0 0.25 0"/>
<feBlend mode="normal" in2="BackgroundImageFix" result="effect1_dropShadow_1600_13761"/>
<feBlend mode="normal" in="SourceGraphic" in2="effect1_dropShadow_1600_13761" result="shape"/>
</filter>
<filter id="filter21_d_1600_13761" x="5.23061" y="110.079" width="19.0548" height="19.1439" filterUnits="userSpaceOnUse" color-interpolation-filters="sRGB">
<feFlood flood-opacity="0" result="BackgroundImageFix"/>
<feColorMatrix in="SourceAlpha" type="matrix" values="0 0 0 0 0 0 0 0 0 0 0 0 0 0 0 0 0 0 127 0" result="hardAlpha"/>
<feOffset dy="1.90204"/>
<feGaussianBlur stdDeviation="0.95102"/>
<feColorMatrix type="matrix" values="0 0 0 0 0 0 0 0 0 0 0 0 0 0 0 0 0 0 0.25 0"/>
<feBlend mode="normal" in2="BackgroundImageFix" result="effect1_dropShadow_1600_13761"/>
<feBlend mode="normal" in="SourceGraphic" in2="effect1_dropShadow_1600_13761" result="shape"/>
</filter>
<filter id="filter22_d_1600_13761" x="5.23061" y="128.188" width="19.0548" height="19.1439" filterUnits="userSpaceOnUse" color-interpolation-filters="sRGB">
<feFlood flood-opacity="0" result="BackgroundImageFix"/>
<feColorMatrix in="SourceAlpha" type="matrix" values="0 0 0 0 0 0 0 0 0 0 0 0 0 0 0 0 0 0 127 0" result="hardAlpha"/>
<feOffset dy="1.90204"/>
<feGaussianBlur stdDeviation="0.95102"/>
<feColorMatrix type="matrix" values="0 0 0 0 0 0 0 0 0 0 0 0 0 0 0 0 0 0 0.25 0"/>
<feBlend mode="normal" in2="BackgroundImageFix" result="effect1_dropShadow_1600_13761"/>
<feBlend mode="normal" in="SourceGraphic" in2="effect1_dropShadow_1600_13761" result="shape"/>
</filter>
<filter id="filter23_d_1600_13761" x="22.9215" y="109.465" width="19.0548" height="19.1439" filterUnits="userSpaceOnUse" color-interpolation-filters="sRGB">
<feFlood flood-opacity="0" result="BackgroundImageFix"/>
<feColorMatrix in="SourceAlpha" type="matrix" values="0 0 0 0 0 0 0 0 0 0 0 0 0 0 0 0 0 0 127 0" result="hardAlpha"/>
<feOffset dy="1.90204"/>
<feGaussianBlur stdDeviation="0.95102"/>
<feColorMatrix type="matrix" values="0 0 0 0 0 0 0 0 0 0 0 0 0 0 0 0 0 0 0.25 0"/>
<feBlend mode="normal" in2="BackgroundImageFix" result="effect1_dropShadow_1600_13761"/>
<feBlend mode="normal" in="SourceGraphic" in2="effect1_dropShadow_1600_13761" result="shape"/>
</filter>
<filter id="filter24_d_1600_13761" x="40.0023" y="116.828" width="19.0548" height="19.1439" filterUnits="userSpaceOnUse" color-interpolation-filters="sRGB">
<feFlood flood-opacity="0" result="BackgroundImageFix"/>
<feColorMatrix in="SourceAlpha" type="matrix" values="0 0 0 0 0 0 0 0 0 0 0 0 0 0 0 0 0 0 127 0" result="hardAlpha"/>
<feOffset dy="1.90204"/>
<feGaussianBlur stdDeviation="0.95102"/>
<feColorMatrix type="matrix" values="0 0 0 0 0 0 0 0 0 0 0 0 0 0 0 0 0 0 0.25 0"/>
<feBlend mode="normal" in2="BackgroundImageFix" result="effect1_dropShadow_1600_13761"/>
<feBlend mode="normal" in="SourceGraphic" in2="effect1_dropShadow_1600_13761" result="shape"/>
</filter>
<filter id="filter25_d_1600_13761" x="57.0831" y="108.238" width="19.0548" height="19.1439" filterUnits="userSpaceOnUse" color-interpolation-filters="sRGB">
<feFlood flood-opacity="0" result="BackgroundImageFix"/>
<feColorMatrix in="SourceAlpha" type="matrix" values="0 0 0 0 0 0 0 0 0 0 0 0 0 0 0 0 0 0 127 0" result="hardAlpha"/>
<feOffset dy="1.90204"/>
<feGaussianBlur stdDeviation="0.95102"/>
<feColorMatrix type="matrix" values="0 0 0 0 0 0 0 0 0 0 0 0 0 0 0 0 0 0 0.25 0"/>
<feBlend mode="normal" in2="BackgroundImageFix" result="effect1_dropShadow_1600_13761"/>
<feBlend mode="normal" in="SourceGraphic" in2="effect1_dropShadow_1600_13761" result="shape"/>
</filter>
<filter id="filter26_d_1600_13761" x="22.9215" y="127.873" width="19.0548" height="19.1439" filterUnits="userSpaceOnUse" color-interpolation-filters="sRGB">
<feFlood flood-opacity="0" result="BackgroundImageFix"/>
<feColorMatrix in="SourceAlpha" type="matrix" values="0 0 0 0 0 0 0 0 0 0 0 0 0 0 0 0 0 0 127 0" result="hardAlpha"/>
<feOffset dy="1.90204"/>
<feGaussianBlur stdDeviation="0.95102"/>
<feColorMatrix type="matrix" values="0 0 0 0 0 0 0 0 0 0 0 0 0 0 0 0 0 0 0.25 0"/>
<feBlend mode="normal" in2="BackgroundImageFix" result="effect1_dropShadow_1600_13761"/>
<feBlend mode="normal" in="SourceGraphic" in2="effect1_dropShadow_1600_13761" result="shape"/>
</filter>
<filter id="filter27_d_1600_13761" x="40.0023" y="135.236" width="19.0548" height="19.1439" filterUnits="userSpaceOnUse" color-interpolation-filters="sRGB">
<feFlood flood-opacity="0" result="BackgroundImageFix"/>
<feColorMatrix in="SourceAlpha" type="matrix" values="0 0 0 0 0 0 0 0 0 0 0 0 0 0 0 0 0 0 127 0" result="hardAlpha"/>
<feOffset dy="1.90204"/>
<feGaussianBlur stdDeviation="0.95102"/>
<feColorMatrix type="matrix" values="0 0 0 0 0 0 0 0 0 0 0 0 0 0 0 0 0 0 0.25 0"/>
<feBlend mode="normal" in2="BackgroundImageFix" result="effect1_dropShadow_1600_13761"/>
<feBlend mode="normal" in="SourceGraphic" in2="effect1_dropShadow_1600_13761" result="shape"/>
</filter>
<filter id="filter28_d_1600_13761" x="57.0831" y="126.646" width="19.0548" height="19.1439" filterUnits="userSpaceOnUse" color-interpolation-filters="sRGB">
<feFlood flood-opacity="0" result="BackgroundImageFix"/>
<feColorMatrix in="SourceAlpha" type="matrix" values="0 0 0 0 0 0 0 0 0 0 0 0 0 0 0 0 0 0 127 0" result="hardAlpha"/>
<feOffset dy="1.90204"/>
<feGaussianBlur stdDeviation="0.95102"/>
<feColorMatrix type="matrix" values="0 0 0 0 0 0 0 0 0 0 0 0 0 0 0 0 0 0 0.25 0"/>
<feBlend mode="normal" in2="BackgroundImageFix" result="effect1_dropShadow_1600_13761"/>
<feBlend mode="normal" in="SourceGraphic" in2="effect1_dropShadow_1600_13761" result="shape"/>
</filter>
<filter id="filter29_d_1600_13761" x="74.1639" y="118.056" width="19.0548" height="19.1439" filterUnits="userSpaceOnUse" color-interpolation-filters="sRGB">
<feFlood flood-opacity="0" result="BackgroundImageFix"/>
<feColorMatrix in="SourceAlpha" type="matrix" values="0 0 0 0 0 0 0 0 0 0 0 0 0 0 0 0 0 0 127 0" result="hardAlpha"/>
<feOffset dy="1.90204"/>
<feGaussianBlur stdDeviation="0.95102"/>
<feColorMatrix type="matrix" values="0 0 0 0 0 0 0 0 0 0 0 0 0 0 0 0 0 0 0.25 0"/>
<feBlend mode="normal" in2="BackgroundImageFix" result="effect1_dropShadow_1600_13761"/>
<feBlend mode="normal" in="SourceGraphic" in2="effect1_dropShadow_1600_13761" result="shape"/>
</filter>
<filter id="filter30_d_1600_13761" x="5.23061" y="146.896" width="19.0548" height="19.1439" filterUnits="userSpaceOnUse" color-interpolation-filters="sRGB">
<feFlood flood-opacity="0" result="BackgroundImageFix"/>
<feColorMatrix in="SourceAlpha" type="matrix" values="0 0 0 0 0 0 0 0 0 0 0 0 0 0 0 0 0 0 127 0" result="hardAlpha"/>
<feOffset dy="1.90204"/>
<feGaussianBlur stdDeviation="0.95102"/>
<feColorMatrix type="matrix" values="0 0 0 0 0 0 0 0 0 0 0 0 0 0 0 0 0 0 0.25 0"/>
<feBlend mode="normal" in2="BackgroundImageFix" result="effect1_dropShadow_1600_13761"/>
<feBlend mode="normal" in="SourceGraphic" in2="effect1_dropShadow_1600_13761" result="shape"/>
</filter>
<filter id="filter31_d_1600_13761" x="22.9215" y="146.281" width="19.0548" height="19.1439" filterUnits="userSpaceOnUse" color-interpolation-filters="sRGB">
<feFlood flood-opacity="0" result="BackgroundImageFix"/>
<feColorMatrix in="SourceAlpha" type="matrix" values="0 0 0 0 0 0 0 0 0 0 0 0 0 0 0 0 0 0 127 0" result="hardAlpha"/>
<feOffset dy="1.90204"/>
<feGaussianBlur stdDeviation="0.95102"/>
<feColorMatrix type="matrix" values="0 0 0 0 0 0 0 0 0 0 0 0 0 0 0 0 0 0 0.25 0"/>
<feBlend mode="normal" in2="BackgroundImageFix" result="effect1_dropShadow_1600_13761"/>
<feBlend mode="normal" in="SourceGraphic" in2="effect1_dropShadow_1600_13761" result="shape"/>
</filter>
<filter id="filter32_d_1600_13761" x="40.0023" y="153.645" width="19.0548" height="19.1439" filterUnits="userSpaceOnUse" color-interpolation-filters="sRGB">
<feFlood flood-opacity="0" result="BackgroundImageFix"/>
<feColorMatrix in="SourceAlpha" type="matrix" values="0 0 0 0 0 0 0 0 0 0 0 0 0 0 0 0 0 0 127 0" result="hardAlpha"/>
<feOffset dy="1.90204"/>
<feGaussianBlur stdDeviation="0.95102"/>
<feColorMatrix type="matrix" values="0 0 0 0 0 0 0 0 0 0 0 0 0 0 0 0 0 0 0.25 0"/>
<feBlend mode="normal" in2="BackgroundImageFix" result="effect1_dropShadow_1600_13761"/>
<feBlend mode="normal" in="SourceGraphic" in2="effect1_dropShadow_1600_13761" result="shape"/>
</filter>
<filter id="filter33_d_1600_13761" x="57.0831" y="145.054" width="19.0548" height="19.1439" filterUnits="userSpaceOnUse" color-interpolation-filters="sRGB">
<feFlood flood-opacity="0" result="BackgroundImageFix"/>
<feColorMatrix in="SourceAlpha" type="matrix" values="0 0 0 0 0 0 0 0 0 0 0 0 0 0 0 0 0 0 127 0" result="hardAlpha"/>
<feOffset dy="1.90204"/>
<feGaussianBlur stdDeviation="0.95102"/>
<feColorMatrix type="matrix" values="0 0 0 0 0 0 0 0 0 0 0 0 0 0 0 0 0 0 0.25 0"/>
<feBlend mode="normal" in2="BackgroundImageFix" result="effect1_dropShadow_1600_13761"/>
<feBlend mode="normal" in="SourceGraphic" in2="effect1_dropShadow_1600_13761" result="shape"/>
</filter>
<filter id="filter34_d_1600_13761" x="74.1639" y="136.464" width="19.0548" height="19.1439" filterUnits="userSpaceOnUse" color-interpolation-filters="sRGB">
<feFlood flood-opacity="0" result="BackgroundImageFix"/>
<feColorMatrix in="SourceAlpha" type="matrix" values="0 0 0 0 0 0 0 0 0 0 0 0 0 0 0 0 0 0 127 0" result="hardAlpha"/>
<feOffset dy="1.90204"/>
<feGaussianBlur stdDeviation="0.95102"/>
<feColorMatrix type="matrix" values="0 0 0 0 0 0 0 0 0 0 0 0 0 0 0 0 0 0 0.25 0"/>
<feBlend mode="normal" in2="BackgroundImageFix" result="effect1_dropShadow_1600_13761"/>
<feBlend mode="normal" in="SourceGraphic" in2="effect1_dropShadow_1600_13761" result="shape"/>
</filter>
<filter id="filter35_d_1600_13761" x="5.23061" y="164.689" width="19.0548" height="19.1439" filterUnits="userSpaceOnUse" color-interpolation-filters="sRGB">
<feFlood flood-opacity="0" result="BackgroundImageFix"/>
<feColorMatrix in="SourceAlpha" type="matrix" values="0 0 0 0 0 0 0 0 0 0 0 0 0 0 0 0 0 0 127 0" result="hardAlpha"/>
<feOffset dy="1.90204"/>
<feGaussianBlur stdDeviation="0.95102"/>
<feColorMatrix type="matrix" values="0 0 0 0 0 0 0 0 0 0 0 0 0 0 0 0 0 0 0.25 0"/>
<feBlend mode="normal" in2="BackgroundImageFix" result="effect1_dropShadow_1600_13761"/>
<feBlend mode="normal" in="SourceGraphic" in2="effect1_dropShadow_1600_13761" result="shape"/>
</filter>
<filter id="filter36_d_1600_13761" x="22.9215" y="164.075" width="19.0548" height="19.1439" filterUnits="userSpaceOnUse" color-interpolation-filters="sRGB">
<feFlood flood-opacity="0" result="BackgroundImageFix"/>
<feColorMatrix in="SourceAlpha" type="matrix" values="0 0 0 0 0 0 0 0 0 0 0 0 0 0 0 0 0 0 127 0" result="hardAlpha"/>
<feOffset dy="1.90204"/>
<feGaussianBlur stdDeviation="0.95102"/>
<feColorMatrix type="matrix" values="0 0 0 0 0 0 0 0 0 0 0 0 0 0 0 0 0 0 0.25 0"/>
<feBlend mode="normal" in2="BackgroundImageFix" result="effect1_dropShadow_1600_13761"/>
<feBlend mode="normal" in="SourceGraphic" in2="effect1_dropShadow_1600_13761" result="shape"/>
</filter>
<filter id="filter37_d_1600_13761" x="57.0831" y="162.849" width="19.0548" height="19.1439" filterUnits="userSpaceOnUse" color-interpolation-filters="sRGB">
<feFlood flood-opacity="0" result="BackgroundImageFix"/>
<feColorMatrix in="SourceAlpha" type="matrix" values="0 0 0 0 0 0 0 0 0 0 0 0 0 0 0 0 0 0 127 0" result="hardAlpha"/>
<feOffset dy="1.90204"/>
<feGaussianBlur stdDeviation="0.95102"/>
<feColorMatrix type="matrix" values="0 0 0 0 0 0 0 0 0 0 0 0 0 0 0 0 0 0 0.25 0"/>
<feBlend mode="normal" in2="BackgroundImageFix" result="effect1_dropShadow_1600_13761"/>
<feBlend mode="normal" in="SourceGraphic" in2="effect1_dropShadow_1600_13761" result="shape"/>
</filter>
<filter id="filter38_d_1600_13761" x="74.1639" y="154.258" width="19.0548" height="19.1439" filterUnits="userSpaceOnUse" color-interpolation-filters="sRGB">
<feFlood flood-opacity="0" result="BackgroundImageFix"/>
<feColorMatrix in="SourceAlpha" type="matrix" values="0 0 0 0 0 0 0 0 0 0 0 0 0 0 0 0 0 0 127 0" result="hardAlpha"/>
<feOffset dy="1.90204"/>
<feGaussianBlur stdDeviation="0.95102"/>
<feColorMatrix type="matrix" values="0 0 0 0 0 0 0 0 0 0 0 0 0 0 0 0 0 0 0.25 0"/>
<feBlend mode="normal" in2="BackgroundImageFix" result="effect1_dropShadow_1600_13761"/>
<feBlend mode="normal" in="SourceGraphic" in2="effect1_dropShadow_1600_13761" result="shape"/>
</filter>
<filter id="filter39_d_1600_13761" x="74.1639" y="171.439" width="19.0548" height="19.1439" filterUnits="userSpaceOnUse" color-interpolation-filters="sRGB">
<feFlood flood-opacity="0" result="BackgroundImageFix"/>
<feColorMatrix in="SourceAlpha" type="matrix" values="0 0 0 0 0 0 0 0 0 0 0 0 0 0 0 0 0 0 127 0" result="hardAlpha"/>
<feOffset dy="1.90204"/>
<feGaussianBlur stdDeviation="0.95102"/>
<feColorMatrix type="matrix" values="0 0 0 0 0 0 0 0 0 0 0 0 0 0 0 0 0 0 0.25 0"/>
<feBlend mode="normal" in2="BackgroundImageFix" result="effect1_dropShadow_1600_13761"/>
<feBlend mode="normal" in="SourceGraphic" in2="effect1_dropShadow_1600_13761" result="shape"/>
</filter>
<clipPath id="clip0_1600_13761">
<rect width="98.9061" height="233" fill="white"/>
</clipPath>
</defs>
</svg>
