<svg width="129" height="53" viewBox="0 0 129 53" fill="none" xmlns="http://www.w3.org/2000/svg">
<path d="M2.03448 4.91957C2.03448 3.1421 3.47541 1.70117 5.25288 1.70117H122.724C124.502 1.70117 125.943 3.14209 125.943 4.91956V47.0805C125.943 48.8579 124.502 50.2989 122.724 50.2989H5.25288C3.47541 50.2989 2.03448 48.858 2.03448 47.0805V4.91957Z" fill="url(#paint0_linear_1691_13706)"/>
<rect x="10.885" y="11.1951" width="12.5517" height="9.33333" rx="0.804598" fill="#EDD84A" stroke="#EDD84A" stroke-width="0.321839"/>
<rect x="25.3678" y="11.1951" width="12.5517" height="9.33333" rx="0.804598" fill="#EDD84A" stroke="#EDD84A" stroke-width="0.321839"/>
<rect x="40.1724" y="11.1482" width="12.5517" height="9.33333" rx="0.804598" fill="#EDD84A" stroke="#EDD84A" stroke-width="0.321839"/>
<rect x="54.3333" y="11.1482" width="12.5517" height="9.33333" rx="0.804598" fill="#EDD84A" stroke="#EDD84A" stroke-width="0.321839"/>
<rect x="68.4942" y="11.1482" width="12.5517" height="9.33333" rx="0.804598" fill="#EDD84A" stroke="#EDD84A" stroke-width="0.321839"/>
<rect x="10.885" y="22.782" width="12.5517" height="9.33333" rx="0.804598" fill="#EDD84A" stroke="#EDD84A" stroke-width="0.321839"/>
<rect x="25.3678" y="22.782" width="12.5517" height="9.33333" rx="0.804598" fill="#EDD84A" stroke="#EDD84A" stroke-width="0.321839"/>
<rect x="40.1724" y="22.7342" width="12.5517" height="9.33333" rx="0.804598" fill="#EDD84A" stroke="#EDD84A" stroke-width="0.321839"/>
<rect x="54.3333" y="22.7342" width="12.5517" height="9.33333" rx="0.804598" fill="#EDD84A" stroke="#EDD84A" stroke-width="0.321839"/>
<rect x="68.4942" y="22.7342" width="12.5517" height="9.33333" rx="0.804598" fill="#EDD84A" stroke="#EDD84A" stroke-width="0.321839"/>
<rect x="10.885" y="34.9637" width="50.5287" height="10.2989" rx="0.804598" fill="#F08432" stroke="#F08432" stroke-width="0.321839"/>
<rect x="66.5632" y="34.9637" width="50.5287" height="10.2989" rx="0.804598" fill="#154F95" stroke="#154F95" stroke-width="0.321839"/>
<path d="M31.9227 41.7772C31.2754 41.7772 30.7828 41.6368 30.4448 41.3559C30.1069 41.0735 29.9379 40.6462 29.9379 40.074C29.9379 39.709 30.0153 39.3989 30.17 39.1436C30.3247 38.8867 30.5522 38.6915 30.8526 38.5578C31.153 38.4242 31.5195 38.3573 31.952 38.3573C32.2419 38.3573 32.5145 38.3859 32.7698 38.4429V39.0827C32.5235 39.0287 32.2712 39.0016 32.0128 39.0016C31.5908 39.0016 31.2784 39.0888 31.0756 39.263C30.8744 39.4372 30.7738 39.7045 30.7738 40.065C30.7738 40.4315 30.8721 40.7011 31.0689 40.8738C31.2671 41.0465 31.5683 41.1329 31.9723 41.1329C32.2441 41.1329 32.51 41.0983 32.7698 41.0292V41.6713C32.504 41.7419 32.2216 41.7772 31.9227 41.7772ZM33.2578 41.7344V38.0937H34.0372V41.7344H33.2578ZM37.0447 40.7161H35.3168C35.3258 40.8407 35.3588 40.9399 35.4159 41.0135C35.473 41.0855 35.5631 41.1389 35.6862 41.1734C35.8109 41.208 35.9791 41.2252 36.1909 41.2252C36.4042 41.2252 36.637 41.1997 36.8893 41.1486V41.6983C36.6159 41.7539 36.3433 41.7817 36.0715 41.7817C35.5503 41.7817 35.1651 41.6788 34.9158 41.473C34.6679 41.2658 34.544 40.9444 34.544 40.5088C34.544 40.243 34.5936 40.0147 34.6927 39.8239C34.7934 39.6317 34.9398 39.4853 35.132 39.3846C35.3258 39.2825 35.5593 39.2314 35.8327 39.2314C36.094 39.2314 36.3148 39.2832 36.495 39.3869C36.6768 39.489 36.8134 39.6377 36.9051 39.8329C36.9982 40.0267 37.0447 40.2602 37.0447 40.5336V40.7161ZM35.8192 39.7045C35.654 39.7045 35.5293 39.7518 35.4452 39.8465C35.3626 39.9411 35.3183 40.089 35.3123 40.2903H36.3238C36.3178 40.0905 36.2727 39.9433 36.1886 39.8487C36.106 39.7526 35.9829 39.7045 35.8192 39.7045ZM38.4927 39.2314C38.7976 39.2314 39.0424 39.266 39.2271 39.3351C39.4134 39.4042 39.5508 39.5183 39.6394 39.6775C39.7295 39.8367 39.7746 40.0545 39.7746 40.3308V41.7344H39.128L39.0762 41.5023H39.0379C38.9508 41.5924 38.8419 41.6615 38.7112 41.7096C38.5821 41.7562 38.4416 41.7794 38.2899 41.7794C38.0947 41.7794 37.9287 41.7494 37.792 41.6893C37.6554 41.6277 37.5525 41.5429 37.4834 41.4347C37.4143 41.3266 37.3798 41.2019 37.3798 41.0608C37.3798 40.828 37.4714 40.6477 37.6546 40.5201C37.8379 40.3924 38.1255 40.3158 38.5175 40.2903L39.0109 40.252C39.0079 40.1348 38.9846 40.0432 38.941 39.9771C38.8975 39.911 38.8291 39.8637 38.736 39.8352C38.6444 39.8067 38.519 39.7924 38.3598 39.7924C38.2471 39.7924 38.1225 39.8022 37.9858 39.8217C37.8491 39.8397 37.7207 39.8667 37.6006 39.9028V39.3486C37.7342 39.3095 37.8799 39.2802 38.0376 39.2607C38.1968 39.2412 38.3485 39.2314 38.4927 39.2314ZM38.531 41.2703C38.6166 41.2703 38.7007 41.2575 38.7833 41.232C38.8674 41.2049 38.9433 41.1651 39.0109 41.1126V40.6688L38.5873 40.7026C38.4311 40.7161 38.3192 40.7469 38.2516 40.7949C38.1856 40.843 38.1525 40.9106 38.1525 40.9977C38.1525 41.0833 38.184 41.1501 38.2471 41.1982C38.3102 41.2463 38.4048 41.2703 38.531 41.2703ZM40.3816 39.2697H41.0169L41.0777 39.5649H41.1138C41.1934 39.4582 41.2963 39.3771 41.4224 39.3215C41.5486 39.2645 41.6883 39.2359 41.8414 39.2359C41.9271 39.2359 42.0052 39.2427 42.0757 39.2562V39.9433C42.0022 39.9283 41.909 39.9208 41.7964 39.9208C41.6777 39.9208 41.5591 39.9411 41.4404 39.9816C41.3233 40.0207 41.2302 40.0778 41.1611 40.1529V41.7344H40.3816V39.2697Z" fill="#FAF6F6"/>
<path d="M86.3869 41.7772C86.0009 41.7772 85.6442 41.7261 85.3168 41.624V40.9977C85.4685 41.0488 85.6442 41.0893 85.844 41.1193C86.0437 41.1479 86.2269 41.1621 86.3937 41.1621C86.6355 41.1621 86.8082 41.1299 86.9118 41.0653C87.0155 41.0007 87.0673 40.9053 87.0673 40.7792C87.0673 40.7086 87.0515 40.6507 87.02 40.6057C86.9884 40.5606 86.9351 40.5223 86.86 40.4908C86.7849 40.4592 86.6798 40.4307 86.5446 40.4052L86.2698 40.3511C85.9078 40.2805 85.645 40.1671 85.4812 40.0109C85.319 39.8532 85.2379 39.643 85.2379 39.3801C85.2379 39.0512 85.3663 38.7989 85.6232 38.6232C85.8815 38.4459 86.2637 38.3573 86.7699 38.3573C87.1048 38.3573 87.4067 38.3934 87.6755 38.4655V39.094C87.5539 39.0565 87.4142 39.0272 87.2565 39.0061C87.1003 38.9836 86.9441 38.9724 86.7879 38.9724C86.5146 38.9724 86.3186 39.0054 86.1999 39.0715C86.0828 39.1361 86.0242 39.2299 86.0242 39.3531C86.0242 39.4192 86.0377 39.4747 86.0647 39.5198C86.0918 39.5634 86.1376 39.6002 86.2022 39.6302C86.2682 39.6602 86.3599 39.6873 86.477 39.7113L86.7541 39.7654C87.0185 39.8164 87.231 39.8863 87.3917 39.9749C87.5539 40.062 87.671 40.1686 87.7431 40.2948C87.8167 40.4194 87.8535 40.5674 87.8535 40.7386C87.8535 40.9534 87.7949 41.1389 87.6778 41.2951C87.5606 41.4513 87.3917 41.5707 87.1709 41.6533C86.9516 41.7359 86.6903 41.7772 86.3869 41.7772ZM90.7774 40.7161H89.0494C89.0585 40.8407 89.0915 40.9399 89.1486 41.0135C89.2056 41.0855 89.2958 41.1389 89.4189 41.1734C89.5436 41.208 89.7118 41.2252 89.9236 41.2252C90.1368 41.2252 90.3696 41.1997 90.622 41.1486V41.6983C90.3486 41.7539 90.076 41.7817 89.8042 41.7817C89.283 41.7817 88.8978 41.6788 88.6484 41.473C88.4006 41.2658 88.2767 40.9444 88.2767 40.5088C88.2767 40.243 88.3263 40.0147 88.4254 39.8239C88.526 39.6317 88.6725 39.4853 88.8647 39.3846C89.0585 39.2825 89.292 39.2314 89.5654 39.2314C89.8267 39.2314 90.0475 39.2832 90.2277 39.3869C90.4094 39.489 90.5461 39.6377 90.6377 39.8329C90.7308 40.0267 90.7774 40.2602 90.7774 40.5336V40.7161ZM89.5518 39.7045C89.3866 39.7045 89.262 39.7518 89.1779 39.8465C89.0953 39.9411 89.0509 40.089 89.0449 40.2903H90.0565C90.0505 40.0905 90.0054 39.9433 89.9213 39.8487C89.8387 39.7526 89.7155 39.7045 89.5518 39.7045ZM91.2542 39.2697H91.8917L91.9413 39.5108H91.9773C92.084 39.4222 92.2086 39.3538 92.3513 39.3058C92.4955 39.2562 92.6479 39.2314 92.8086 39.2314C93.115 39.2314 93.3561 39.3193 93.5318 39.495C93.7075 39.6692 93.7954 39.9388 93.7954 40.3038V41.7344H93.0159V40.3421C93.0159 40.1754 92.9806 40.0575 92.91 39.9884C92.8394 39.9178 92.7328 39.8825 92.5901 39.8825C92.4865 39.8825 92.3851 39.9013 92.286 39.9388C92.1869 39.9764 92.1027 40.0305 92.0337 40.101V41.7344H91.2542V39.2697ZM95.4388 41.7749C95.2166 41.7749 95.0176 41.7321 94.8418 41.6465C94.6676 41.5594 94.5294 41.4242 94.4273 41.241C94.3252 41.0578 94.2741 40.8287 94.2741 40.5539C94.2741 40.273 94.3319 40.0335 94.4476 39.8352C94.5632 39.6354 94.7299 39.4838 94.9477 39.3801C95.1655 39.2765 95.4261 39.2247 95.7295 39.2247C95.8676 39.2247 96.0148 39.2344 96.171 39.254V38.0937H96.9505V41.7344H96.2994L96.2589 41.4775H96.2206C96.1245 41.5707 96.0096 41.6435 95.8759 41.6961C95.7437 41.7486 95.598 41.7749 95.4388 41.7749ZM95.6484 41.1554C95.749 41.1554 95.8444 41.1396 95.9345 41.1081C96.0261 41.0765 96.1049 41.027 96.171 40.9594V39.8487C96.0509 39.8232 95.921 39.8104 95.7813 39.8104C95.532 39.8104 95.3472 39.8675 95.2271 39.9816C95.1069 40.0958 95.0468 40.2693 95.0468 40.5021C95.0468 40.9376 95.2473 41.1554 95.6484 41.1554Z" fill="#F8F0F0"/>
<path d="M47.3652 7.59178H49.3049V7.98828H46.8606V4.65403H49.2824V5.05053H47.3652V6.0801H49.0504V6.47886H47.3652V7.59178ZM49.9001 5.53715H50.3147L50.3462 5.80525H50.3755C50.4911 5.70762 50.6241 5.63253 50.7742 5.57996C50.9244 5.52589 51.0814 5.49886 51.2451 5.49886C51.538 5.49886 51.767 5.57921 51.9322 5.73991C52.0989 5.90062 52.1823 6.15144 52.1823 6.49237V7.98828H51.6822V6.51265C51.6822 6.30388 51.6348 6.15444 51.5402 6.06433C51.4456 5.97271 51.3067 5.9269 51.1234 5.9269C50.9928 5.9269 50.8629 5.95168 50.7337 6.00125C50.606 6.04931 50.4949 6.1229 50.4003 6.22203V7.98828H49.9001V5.53715ZM54.1178 7.62332C54.1659 7.62332 54.2147 7.62031 54.2642 7.6143C54.3138 7.6083 54.3754 7.59778 54.449 7.58276V7.97927C54.2958 8.01532 54.1433 8.03334 53.9916 8.03334C53.6897 8.03334 53.46 7.95974 53.3022 7.81256C53.1445 7.66537 53.0657 7.44309 53.0657 7.14571V5.94042H52.5768V5.53715H53.0657L53.1513 4.65403H53.5658V5.53715H54.4152V5.94042H53.5658V7.05334C53.5658 7.2561 53.6109 7.40178 53.701 7.4904C53.7911 7.57901 53.9301 7.62332 54.1178 7.62332ZM56.9883 6.91141H55.2108C55.2198 7.08863 55.2581 7.23207 55.3256 7.34171C55.3932 7.44984 55.4946 7.52945 55.6298 7.58051C55.765 7.63158 55.9384 7.65711 56.1502 7.65711C56.3605 7.65711 56.5933 7.62482 56.8486 7.56024V7.93196C56.5828 7.99955 56.3267 8.03334 56.0804 8.03334C55.6238 8.03334 55.2813 7.93046 55.053 7.7247C54.8263 7.51743 54.7129 7.19827 54.7129 6.76722C54.7129 6.49688 54.7587 6.26709 54.8503 6.07784C54.9419 5.8886 55.0741 5.74517 55.2468 5.64755C55.421 5.54842 55.6305 5.49886 55.8753 5.49886C56.2358 5.49886 56.5114 5.60925 56.7022 5.83003C56.8929 6.04931 56.9883 6.36621 56.9883 6.78074V6.91141ZM55.8686 5.83003C55.6583 5.83003 55.4976 5.89386 55.3865 6.02152C55.2753 6.14768 55.216 6.34368 55.2085 6.60952H56.5174C56.5114 6.34368 56.4543 6.14768 56.3462 6.02152C56.2381 5.89386 56.0789 5.83003 55.8686 5.83003ZM57.552 5.53715H57.9643L58.0026 5.8503H58.0318C58.1205 5.74367 58.2346 5.66031 58.3743 5.60024C58.5155 5.54016 58.6626 5.51012 58.8158 5.51012C58.903 5.51012 58.9848 5.51763 59.0614 5.53265V5.98097C58.9878 5.96745 58.8977 5.96069 58.7911 5.96069C58.6589 5.96069 58.5245 5.98623 58.3878 6.03729C58.2511 6.08836 58.1392 6.1642 58.0521 6.26483V7.98828H57.552V5.53715ZM61.6051 5.49886C61.8635 5.49886 62.0737 5.52965 62.2359 5.59122C62.3982 5.6513 62.5198 5.75193 62.6009 5.89311C62.682 6.03429 62.7226 6.22653 62.7226 6.46984V7.98828H62.3035L62.2675 7.7247H62.2405C62.1488 7.82082 62.0332 7.89591 61.8935 7.94998C61.7538 8.00255 61.6051 8.02883 61.4474 8.02883C61.2672 8.02883 61.1133 8.00105 60.9856 7.94548C60.8579 7.8884 60.7611 7.8088 60.695 7.70667C60.6289 7.60454 60.5959 7.48439 60.5959 7.34621C60.5959 7.12843 60.677 6.96022 60.8392 6.84157C61.0029 6.72142 61.2627 6.64557 61.6187 6.61403L62.2314 6.5532V6.43605C62.2314 6.29187 62.2067 6.17922 62.1571 6.09812C62.1075 6.01702 62.0324 5.95994 61.9318 5.9269C61.8327 5.89386 61.7005 5.87734 61.5353 5.87734C61.4212 5.87734 61.2973 5.8871 61.1636 5.90663C61.0314 5.92615 60.9045 5.95544 60.7828 5.99449V5.62051C60.903 5.58146 61.0359 5.55142 61.1816 5.5304C61.3288 5.50937 61.47 5.49886 61.6051 5.49886ZM61.5804 7.68189C61.7005 7.68189 61.8169 7.66086 61.9296 7.61881C62.0422 7.57525 62.1428 7.51067 62.2314 7.42506V6.85058L61.657 6.9069C61.4572 6.92943 61.3145 6.97299 61.2289 7.03757C61.1433 7.10065 61.1005 7.19076 61.1005 7.30791C61.1005 7.42656 61.1403 7.51893 61.2199 7.58502C61.2995 7.6496 61.4197 7.68189 61.5804 7.68189ZM64.7022 5.53715H65.1235L65.155 5.81426H65.1798C65.2774 5.71513 65.3938 5.63778 65.529 5.58221C65.6642 5.52664 65.8121 5.49886 65.9728 5.49886C66.1906 5.49886 66.3829 5.54091 66.5496 5.62502C66.7178 5.70912 66.85 5.84204 66.9461 6.02378C67.0437 6.20551 67.0925 6.43605 67.0925 6.71541C67.0925 7.14496 66.9739 7.47237 66.7366 7.69766C66.4993 7.92145 66.1561 8.03334 65.707 8.03334C65.5598 8.03334 65.3916 8.01982 65.2024 7.99279V8.97955H64.7022V5.53715ZM65.6822 7.64134C65.9901 7.64134 66.2184 7.5685 66.3671 7.42281C66.5173 7.27712 66.5924 7.05334 66.5924 6.75145C66.5924 6.18974 66.3461 5.90888 65.8534 5.90888C65.7273 5.90888 65.6079 5.93216 65.4952 5.97872C65.3826 6.02528 65.285 6.09812 65.2024 6.19725V7.58727C65.342 7.62332 65.502 7.64134 65.6822 7.64134ZM68.5706 5.49886C68.8289 5.49886 69.0392 5.52965 69.2014 5.59122C69.3636 5.6513 69.4852 5.75193 69.5663 5.89311C69.6474 6.03429 69.688 6.22653 69.688 6.46984V7.98828H69.269L69.2329 7.7247H69.2059C69.1143 7.82082 68.9986 7.89591 68.8589 7.94998C68.7193 8.00255 68.5706 8.02883 68.4129 8.02883C68.2326 8.02883 68.0787 8.00105 67.951 7.94548C67.8234 7.8884 67.7265 7.8088 67.6604 7.70667C67.5943 7.60454 67.5613 7.48439 67.5613 7.34621C67.5613 7.12843 67.6424 6.96022 67.8046 6.84157C67.9683 6.72142 68.2281 6.64557 68.5841 6.61403L69.1969 6.5532V6.43605C69.1969 6.29187 69.1721 6.17922 69.1225 6.09812C69.073 6.01702 68.9979 5.95994 68.8972 5.9269C68.7981 5.89386 68.6659 5.87734 68.5007 5.87734C68.3866 5.87734 68.2627 5.8871 68.129 5.90663C67.9968 5.92615 67.8699 5.95544 67.7483 5.99449V5.62051C67.8684 5.58146 68.0013 5.55142 68.147 5.5304C68.2942 5.50937 68.4354 5.49886 68.5706 5.49886ZM68.5458 7.68189C68.6659 7.68189 68.7823 7.66086 68.895 7.61881C69.0076 7.57525 69.1083 7.51067 69.1969 7.42506V6.85058L68.6224 6.9069C68.4226 6.92943 68.28 6.97299 68.1943 7.03757C68.1087 7.10065 68.0659 7.19076 68.0659 7.30791C68.0659 7.42656 68.1057 7.51893 68.1853 7.58502C68.2649 7.6496 68.3851 7.68189 68.5458 7.68189ZM70.4004 5.53715H70.8127L70.851 5.8503H70.8803C70.9689 5.74367 71.083 5.66031 71.2227 5.60024C71.3639 5.54016 71.5111 5.51012 71.6643 5.51012C71.7514 5.51012 71.8332 5.51763 71.9098 5.53265V5.98097C71.8362 5.96745 71.7461 5.96069 71.6395 5.96069C71.5073 5.96069 71.3729 5.98623 71.2362 6.03729C71.0995 6.08836 70.9876 6.1642 70.9005 6.26483V7.98828H70.4004V5.53715ZM73.6192 7.62332C73.6673 7.62332 73.7161 7.62031 73.7657 7.6143C73.8152 7.6083 73.8768 7.59778 73.9504 7.58276V7.97927C73.7972 8.01532 73.6448 8.03334 73.4931 8.03334C73.1912 8.03334 72.9614 7.95974 72.8037 7.81256C72.646 7.66537 72.5671 7.44309 72.5671 7.14571V5.94042H72.0783V5.53715H72.5671L72.6527 4.65403H73.0673V5.53715H73.9166V5.94042H73.0673V7.05334C73.0673 7.2561 73.1123 7.40178 73.2024 7.4904C73.2926 7.57901 73.4315 7.62332 73.6192 7.62332ZM76.1388 5.53715H76.6321L75.1475 8.97955H74.6519L75.0822 7.98828H74.9605L73.9062 5.53715H74.4378L75.2804 7.58502L76.1388 5.53715ZM79.0598 8.03334C78.7519 8.03334 78.4726 7.99729 78.2217 7.9252V7.56249C78.4906 7.63758 78.7707 7.67513 79.0621 7.67513C79.2874 7.67513 79.4496 7.64509 79.5487 7.58502C79.6478 7.52344 79.6974 7.43407 79.6974 7.31692C79.6974 7.25384 79.6861 7.20203 79.6636 7.16148C79.6411 7.11942 79.6028 7.08488 79.5487 7.05784C79.4946 7.02931 79.4203 7.00753 79.3256 6.99251L78.8908 6.92492C78.6385 6.88437 78.456 6.80778 78.3434 6.69513C78.2323 6.58249 78.1767 6.43155 78.1767 6.2423C78.1767 6.01251 78.2713 5.83153 78.4605 5.69936C78.6513 5.56569 78.9419 5.49886 79.3324 5.49886C79.4556 5.49886 79.578 5.50712 79.6996 5.52364C79.8228 5.53866 79.9362 5.56119 80.0398 5.59122V5.95168C79.8115 5.8886 79.5765 5.85706 79.3347 5.85706C79.0868 5.85706 78.9119 5.88935 78.8097 5.95394C78.7076 6.01852 78.6565 6.10788 78.6565 6.22203C78.6565 6.30764 78.6828 6.37748 78.7354 6.43155C78.788 6.48411 78.8818 6.52241 79.017 6.54644L79.4518 6.61403C79.7026 6.65308 79.8866 6.72517 80.0038 6.8303C80.1209 6.93544 80.1795 7.08788 80.1795 7.28764C80.1795 7.44233 80.1374 7.57525 80.0533 7.6864C79.9707 7.79754 79.8453 7.88315 79.6771 7.94322C79.5104 8.0033 79.3046 8.03334 79.0598 8.03334ZM80.7319 7.98828V5.53715H81.2321V7.98828H80.7319ZM80.982 5.05955C80.8754 5.05955 80.7943 5.03627 80.7387 4.98971C80.6846 4.94315 80.6576 4.87631 80.6576 4.7892C80.6576 4.70059 80.6846 4.633 80.7387 4.58644C80.7943 4.53838 80.8754 4.51435 80.982 4.51435C81.0886 4.51435 81.169 4.53838 81.2231 4.58644C81.2786 4.633 81.3064 4.70059 81.3064 4.7892C81.3064 4.87631 81.2786 4.94315 81.2231 4.98971C81.169 5.03627 81.0886 5.05955 80.982 5.05955ZM82.4525 7.58502H83.9349V7.98828H81.7789V7.67063L83.2365 5.94042H81.8082V5.53715H83.9056V5.85481L82.4525 7.58502ZM86.5088 6.91141H84.7313C84.7403 7.08863 84.7786 7.23207 84.8462 7.34171C84.9138 7.44984 85.0152 7.52945 85.1503 7.58051C85.2855 7.63158 85.459 7.65711 85.6708 7.65711C85.881 7.65711 86.1138 7.62482 86.3692 7.56024V7.93196C86.1033 7.99955 85.8472 8.03334 85.6009 8.03334C85.1443 8.03334 84.8019 7.93046 84.5736 7.7247C84.3468 7.51743 84.2334 7.19827 84.2334 6.76722C84.2334 6.49688 84.2792 6.26709 84.3709 6.07784C84.4625 5.8886 84.5946 5.74517 84.7674 5.64755C84.9416 5.54842 85.1511 5.49886 85.3959 5.49886C85.7564 5.49886 86.032 5.60925 86.2227 5.83003C86.4135 6.04931 86.5088 6.36621 86.5088 6.78074V6.91141ZM85.3892 5.83003C85.1789 5.83003 85.0182 5.89386 84.907 6.02152C84.7959 6.14768 84.7366 6.34368 84.7291 6.60952H86.038C86.032 6.34368 85.9749 6.14768 85.8668 6.02152C85.7586 5.89386 85.5994 5.83003 85.3892 5.83003Z" fill="black"/>
<path d="M60.6578 26.4491C61.0858 26.4491 61.4178 26.5805 61.6536 26.8434C61.8894 27.1062 62.0073 27.5065 62.0073 28.0441C62.0073 28.6434 61.8698 29.0977 61.595 29.4071C61.3216 29.715 60.9199 29.869 60.3897 29.869C60.0983 29.869 59.8535 29.8314 59.6553 29.7563V29.3666C59.7559 29.4056 59.8685 29.4349 59.9932 29.4544C60.1179 29.474 60.2395 29.4837 60.3582 29.4837C60.7396 29.4837 61.0258 29.3786 61.2165 29.1683C61.4072 28.9566 61.5056 28.6404 61.5116 28.2199C61.4005 28.2875 61.2676 28.3408 61.1129 28.3798C60.9582 28.4189 60.8035 28.4384 60.6488 28.4384C60.2808 28.4384 59.9947 28.3558 59.7904 28.1906C59.5862 28.0239 59.484 27.7761 59.484 27.4471C59.484 27.2399 59.5314 27.0611 59.626 26.911C59.7221 26.7608 59.858 26.6466 60.0337 26.5685C60.2095 26.4889 60.4175 26.4491 60.6578 26.4491ZM59.9526 27.4359C59.9526 27.6476 60.0202 27.8068 60.1554 27.9135C60.2906 28.0186 60.4858 28.0712 60.7411 28.0712C60.8703 28.0712 61.0032 28.0539 61.1399 28.0194C61.2781 27.9833 61.4012 27.9315 61.5094 27.8639C61.4959 27.4929 61.417 27.2256 61.2728 27.0619C61.1301 26.8982 60.9251 26.8163 60.6578 26.8163C60.44 26.8163 60.268 26.8689 60.1419 26.974C60.0157 27.0777 59.9526 27.2316 59.9526 27.4359Z" fill="black"/>
<path d="M47.4476 28.1072C47.6984 28.1943 47.8794 28.3055 47.9905 28.4407C48.1016 28.5743 48.1572 28.7373 48.1572 28.9295C48.1572 29.1158 48.1069 29.2795 48.0063 29.4207C47.9056 29.5618 47.7539 29.6722 47.5512 29.7518C47.3484 29.8299 47.0984 29.869 46.801 29.869C46.3354 29.869 45.9869 29.7924 45.7556 29.6392C45.5259 29.486 45.411 29.2705 45.411 28.9926C45.411 28.7944 45.468 28.6231 45.5822 28.479C45.6963 28.3348 45.86 28.2229 46.0733 28.1433C45.8826 28.0532 45.7436 27.9428 45.6565 27.8121C45.5709 27.6814 45.5281 27.5275 45.5281 27.3503C45.5281 27.167 45.5762 27.0078 45.6723 26.8727C45.7699 26.7375 45.9149 26.6331 46.1071 26.5595C46.2993 26.4859 46.5344 26.4491 46.8122 26.4491C47.0721 26.4491 47.2936 26.4829 47.4768 26.5505C47.6601 26.6166 47.799 26.7127 47.8936 26.8389C47.9897 26.9635 48.0378 27.1137 48.0378 27.2894C48.0378 27.4742 47.989 27.6356 47.8914 27.7738C47.7952 27.912 47.6473 28.0231 47.4476 28.1072ZM46.7965 26.8073C46.5351 26.8073 46.3391 26.8539 46.2085 26.947C46.0793 27.0386 46.0147 27.1663 46.0147 27.33C46.0147 27.4456 46.0425 27.5433 46.0981 27.6229C46.1537 27.701 46.2505 27.7693 46.3887 27.8279C46.5269 27.8849 46.7199 27.9368 46.9677 27.9833L47.0488 27.9991C47.238 27.9195 47.3747 27.8271 47.4588 27.722C47.5444 27.6169 47.5872 27.4899 47.5872 27.3413C47.5872 27.1685 47.5196 27.0364 47.3845 26.9447C47.2493 26.8531 47.0533 26.8073 46.7965 26.8073ZM46.8055 29.5108C47.0939 29.5108 47.3109 29.4642 47.4566 29.3711C47.6023 29.2765 47.6751 29.1398 47.6751 28.9611C47.6751 28.8499 47.6458 28.7568 47.5872 28.6817C47.5287 28.6066 47.4318 28.542 47.2966 28.488C47.1614 28.4324 46.9752 28.3828 46.7379 28.3393C46.6283 28.3198 46.5269 28.2972 46.4338 28.2717C46.2535 28.3378 46.1184 28.4279 46.0282 28.542C45.9381 28.6562 45.8931 28.7846 45.8931 28.9273C45.8931 29.118 45.9697 29.263 46.1229 29.3621C46.2761 29.4612 46.5036 29.5108 46.8055 29.5108Z" fill="black"/>
<path d="M30.7097 26.1697H32.9919V26.4377L31.6604 29.5039H31.1332L32.4332 26.5797H30.7097V26.1697Z" fill="black"/>
<path d="M16.8925 27.5574C17.2604 27.5574 17.5466 27.6408 17.7508 27.8075C17.9551 27.9727 18.0572 28.2198 18.0572 28.5487C18.0572 28.756 18.0092 28.9347 17.913 29.0849C17.8184 29.2351 17.6832 29.35 17.5075 29.4296C17.3318 29.5077 17.1238 29.5467 16.8835 29.5467C16.4554 29.5467 16.1235 29.4153 15.8877 29.1525C15.6519 28.8896 15.534 28.4894 15.534 27.9517C15.534 27.3524 15.6707 26.8988 15.944 26.5909C16.2189 26.2815 16.6214 26.1268 17.1516 26.1268C17.4429 26.1268 17.6877 26.1644 17.886 26.2395V26.6292C17.7854 26.5902 17.6727 26.5609 17.5481 26.5414C17.4234 26.5219 17.3018 26.5121 17.1831 26.5121C16.8016 26.5121 16.5155 26.618 16.3248 26.8297C16.134 27.04 16.0356 27.3554 16.0296 27.776C16.1408 27.7084 16.2737 27.655 16.4284 27.616C16.5831 27.5769 16.7378 27.5574 16.8925 27.5574ZM16.8835 29.1795C17.1012 29.1795 17.2732 29.1277 17.3994 29.024C17.5255 28.9189 17.5886 28.7642 17.5886 28.56C17.5886 28.3482 17.521 28.1897 17.3859 28.0846C17.2507 27.978 17.0554 27.9246 16.8001 27.9246C16.6709 27.9246 16.5373 27.9427 16.3991 27.9787C16.2624 28.0133 16.14 28.0643 16.0319 28.1319C16.0454 28.5029 16.1235 28.7702 16.2662 28.9339C16.4104 29.0976 16.6161 29.1795 16.8835 29.1795Z" fill="black"/>
<path d="M17.4503 14.6525H17.795V17.998H17.2836V15.2721L16.2743 15.9885V15.4951L17.4503 14.6525Z" fill="black"/>
<path d="M33.1135 17.5079V17.918H30.8336V17.6499L31.915 16.4401C32.0952 16.2373 32.2214 16.0676 32.2935 15.9309C32.3671 15.7928 32.4039 15.6576 32.4039 15.5254C32.4039 15.3272 32.343 15.1815 32.2214 15.0884C32.0997 14.9952 31.909 14.9487 31.6492 14.9487C31.496 14.9487 31.3458 14.9614 31.1986 14.987C31.0529 15.0125 30.9177 15.0478 30.7931 15.0929V14.6761C30.9087 14.6355 31.0454 14.6032 31.2031 14.5792C31.3623 14.5537 31.5215 14.5409 31.6807 14.5409C32.0922 14.5409 32.3994 14.6183 32.6021 14.773C32.8064 14.9262 32.9085 15.1597 32.9085 15.4736C32.9085 15.6013 32.8897 15.7229 32.8522 15.8386C32.8161 15.9542 32.7561 16.0751 32.672 16.2013C32.5878 16.3274 32.473 16.4701 32.3273 16.6293L31.5275 17.5079H33.1135Z" fill="black"/>
<path d="M47.5236 16.1855C47.7579 16.2306 47.9373 16.3214 48.062 16.4581C48.1882 16.5948 48.2512 16.772 48.2512 16.9898C48.2512 17.2992 48.1386 17.5387 47.9133 17.7085C47.6895 17.8767 47.3463 17.9608 46.8838 17.9608C46.7215 17.9608 46.5593 17.9488 46.3971 17.9247C46.2349 17.9022 46.0825 17.8692 45.9398 17.8256V17.4426C46.09 17.4862 46.2447 17.5207 46.4039 17.5462C46.5631 17.5703 46.7163 17.5823 46.8635 17.5823C47.4672 17.5823 47.7691 17.3758 47.7691 16.9628C47.7691 16.7765 47.703 16.6361 47.5709 16.5415C47.4402 16.4468 47.2345 16.3995 46.9536 16.3995H46.4084V16.0188H46.7396C47.043 16.0188 47.2682 15.9722 47.4154 15.8791C47.5641 15.7845 47.6385 15.6418 47.6385 15.4511C47.6385 15.2814 47.5746 15.1507 47.447 15.0591C47.3193 14.966 47.1316 14.9194 46.8838 14.9194C46.7441 14.9194 46.6014 14.9307 46.4557 14.9532C46.3115 14.9742 46.1718 15.0065 46.0367 15.0501V14.6693C46.1643 14.6288 46.3055 14.5972 46.4602 14.5747C46.6164 14.5522 46.7719 14.5409 46.9266 14.5409C47.1879 14.5409 47.4079 14.5755 47.5866 14.6445C47.7669 14.7136 47.9028 14.8143 47.9944 14.9464C48.086 15.0771 48.1318 15.234 48.1318 15.4173C48.1318 15.605 48.0778 15.7657 47.9696 15.8994C47.8615 16.0316 47.7128 16.1269 47.5236 16.1855Z" fill="black"/>
<path d="M62.2686 16.7622V17.1655H61.7662V17.918H61.2999V17.1655H59.4322V16.8907L60.8425 14.5837H61.3472L60.0157 16.7622H61.2999L61.3539 15.7102H61.7662V16.7622H62.2686Z" fill="black"/>
<path d="M74.4628 15.958C74.8323 15.9775 75.1289 16.0263 75.3527 16.1044C75.5765 16.1825 75.7387 16.2906 75.8393 16.4288C75.9399 16.5655 75.9902 16.7375 75.9902 16.9447C75.9902 17.2751 75.8761 17.5275 75.6478 17.7017C75.4195 17.8744 75.0771 17.9608 74.6205 17.9608C74.4598 17.9608 74.2983 17.948 74.1361 17.9225C73.9739 17.8984 73.8215 17.8639 73.6788 17.8188V17.4359C73.826 17.4794 73.9792 17.514 74.1384 17.5395C74.2976 17.5635 74.4523 17.5755 74.6025 17.5755C74.9089 17.5755 75.1364 17.5237 75.2851 17.4201C75.4338 17.3149 75.5081 17.1595 75.5081 16.9537C75.5081 16.8216 75.4721 16.7134 75.4 16.6293C75.3294 16.5452 75.2085 16.4791 75.0373 16.4311C74.8661 16.3815 74.628 16.3485 74.3231 16.3319L73.814 16.3049L73.9379 14.5837H75.8461V14.9667H74.3907L74.3209 15.9512L74.4628 15.958Z" fill="black"/>
<path d="M75.1071 29.2254C74.6851 29.2254 74.3562 29.0865 74.1204 28.8086C73.8861 28.5293 73.7689 28.0982 73.7689 27.5155C73.7689 26.9312 73.8853 26.5002 74.1181 26.2223C74.3524 25.9445 74.6821 25.8056 75.1071 25.8056C75.5337 25.8056 75.8633 25.9445 76.0961 26.2223C76.3304 26.5002 76.4476 26.9312 76.4476 27.5155C76.4476 28.0982 76.3297 28.5293 76.0939 28.8086C75.8596 29.0865 75.5307 29.2254 75.1071 29.2254ZM75.1094 28.8019C75.2866 28.8019 75.436 28.7621 75.5577 28.6825C75.6808 28.6029 75.7762 28.4692 75.8438 28.2815C75.9114 28.0922 75.9452 27.8384 75.9452 27.52C75.9452 27.1986 75.9114 26.9433 75.8438 26.754C75.7762 26.5633 75.6808 26.4281 75.5577 26.3485C75.436 26.2689 75.2866 26.2291 75.1094 26.2291C74.9306 26.2291 74.7797 26.2689 74.6565 26.3485C74.5349 26.4281 74.4403 26.5625 74.3727 26.7518C74.3066 26.9395 74.2735 27.1926 74.2735 27.511C74.2735 27.8324 74.3066 28.0885 74.3727 28.2792C74.4403 28.4685 74.5349 28.6029 74.6565 28.6825C74.7797 28.7621 74.9306 28.8019 75.1094 28.8019Z" fill="black"/>
<rect x="85.5517" y="11.1951" width="31.8621" height="20.9195" rx="1.44828" fill="#BFB6B6" fill-opacity="0.5" stroke="#EDEBEB" stroke-width="0.321839"/>
<path d="M101.049 24.5792C100.325 24.5792 99.7616 24.3411 99.3574 23.8648C98.9557 23.3859 98.7549 22.6469 98.7549 21.6479C98.7549 20.6464 98.9544 19.9074 99.3535 19.4311C99.7552 18.9548 100.32 18.7166 101.049 18.7166C101.78 18.7166 102.345 18.9548 102.744 19.4311C103.146 19.9074 103.347 20.6464 103.347 21.6479C103.347 22.6469 103.145 23.3859 102.741 23.8648C102.339 24.3411 101.775 24.5792 101.049 24.5792ZM101.053 23.8532C101.357 23.8532 101.613 23.7849 101.821 23.6485C102.032 23.512 102.196 23.2829 102.312 22.961C102.428 22.6366 102.486 22.2015 102.486 21.6557C102.486 21.1047 102.428 20.667 102.312 20.3425C102.196 20.0156 102.032 19.7838 101.821 19.6474C101.613 19.5109 101.357 19.4427 101.053 19.4427C100.746 19.4427 100.488 19.5109 100.277 19.6474C100.068 19.7838 99.9058 20.0143 99.7899 20.3387C99.6766 20.6605 99.62 21.0944 99.62 21.6402C99.62 22.1912 99.6766 22.6302 99.7899 22.9572C99.9058 23.2816 100.068 23.512 100.277 23.6485C100.488 23.7849 100.746 23.8532 101.053 23.8532Z" fill="#0E0E0E"/>
<defs>
<linearGradient id="paint0_linear_1691_13706" x1="59.242" y1="50.2989" x2="58.5057" y2="-7.54123" gradientUnits="userSpaceOnUse">
<stop offset="0.848958" stop-color="#EDEBEB"/>
<stop offset="1" stop-color="#EDEBEB" stop-opacity="0"/>
</linearGradient>
</defs>
</svg>
