<svg width="402" height="155" viewBox="0 0 402 155" fill="none" xmlns="http://www.w3.org/2000/svg">
<path d="M0.295532 8.58133C0.295532 3.97197 4.03216 0.235352 8.64153 0.235352H385.528C390.138 0.235352 393.874 3.97198 393.874 8.58135V146.419C393.874 151.029 390.138 154.765 385.528 154.765H8.64154C4.03217 154.765 0.295532 151.029 0.295532 146.419V8.58133Z" fill="url(#paint0_linear_2223_13655)"/>
<rect x="28.3143" y="30.3304" width="40.0567" height="29.8667" rx="2.0865" fill="#EDD84A" stroke="#EDD84A" stroke-width="0.8346"/>
<rect x="74.3171" y="30.3304" width="40.0567" height="29.8667" rx="2.0865" fill="#EDD84A" stroke="#EDD84A" stroke-width="0.8346"/>
<rect x="121.342" y="30.178" width="40.0567" height="29.8667" rx="2.0865" fill="#EDD84A" stroke="#EDD84A" stroke-width="0.8346"/>
<rect x="166.322" y="30.178" width="40.0567" height="29.8667" rx="2.0865" fill="#EDD84A" stroke="#EDD84A" stroke-width="0.8346"/>
<rect x="211.303" y="30.178" width="40.0567" height="29.8667" rx="2.0865" fill="#EDD84A" stroke="#EDD84A" stroke-width="0.8346"/>
<rect x="28.3143" y="67.1722" width="40.0567" height="29.8667" rx="2.0865" fill="#EDD84A" stroke="#EDD84A" stroke-width="0.8346"/>
<rect x="74.3171" y="67.1722" width="40.0567" height="29.8667" rx="2.0865" fill="#EDD84A" stroke="#EDD84A" stroke-width="0.8346"/>
<rect x="121.342" y="67.0198" width="40.0567" height="29.8667" rx="2.0865" fill="#EDD84A" stroke="#EDD84A" stroke-width="0.8346"/>
<rect x="166.322" y="67.0198" width="40.0567" height="29.8667" rx="2.0865" fill="#EDD84A" stroke="#EDD84A" stroke-width="0.8346"/>
<rect x="211.303" y="67.0198" width="40.0567" height="29.8667" rx="2.0865" fill="#EDD84A" stroke="#EDD84A" stroke-width="0.8346"/>
<rect x="28.3143" y="105.909" width="160.686" height="32.9369" rx="2.0865" fill="#F08432" stroke="#F08432" stroke-width="0.8346"/>
<rect x="205.169" y="105.909" width="160.686" height="32.9369" rx="2.0865" fill="#154F95" stroke="#154F95" stroke-width="0.8346"/>
<path d="M97.9045 127.281C96.2259 127.281 94.9484 126.917 94.072 126.188C93.1957 125.456 92.7575 124.348 92.7575 122.864C92.7575 121.918 92.9581 121.114 93.3593 120.451C93.7605 119.785 94.3505 119.279 95.1295 118.932C95.9084 118.586 96.8588 118.412 97.9805 118.412C98.7322 118.412 99.4391 118.486 100.101 118.634V120.294C99.4624 120.153 98.8081 120.083 98.1382 120.083C97.0438 120.083 96.2337 120.309 95.7079 120.761C95.186 121.213 94.925 121.906 94.925 122.841C94.925 123.791 95.1801 124.49 95.6903 124.938C96.2044 125.386 96.9853 125.61 98.033 125.61C98.738 125.61 99.4274 125.52 100.101 125.341V127.006C99.4118 127.189 98.6796 127.281 97.9045 127.281ZM101.367 127.17V117.729H103.388V127.17H101.367ZM111.187 124.529H106.706C106.729 124.853 106.815 125.11 106.963 125.3C107.111 125.487 107.345 125.626 107.664 125.715C107.987 125.805 108.424 125.85 108.973 125.85C109.526 125.85 110.13 125.783 110.784 125.651V127.076C110.075 127.221 109.368 127.293 108.663 127.293C107.312 127.293 106.313 127.026 105.666 126.492C105.024 125.955 104.702 125.121 104.702 123.992C104.702 123.302 104.831 122.71 105.088 122.216C105.349 121.717 105.728 121.337 106.227 121.077C106.729 120.812 107.335 120.679 108.044 120.679C108.722 120.679 109.294 120.814 109.762 121.082C110.233 121.347 110.587 121.733 110.825 122.239C111.066 122.742 111.187 123.347 111.187 124.056V124.529ZM108.009 121.906C107.58 121.906 107.257 122.029 107.039 122.274C106.825 122.52 106.71 122.903 106.694 123.425H109.318C109.302 122.907 109.185 122.525 108.967 122.28C108.753 122.031 108.433 121.906 108.009 121.906ZM114.942 120.679C115.733 120.679 116.367 120.769 116.846 120.948C117.329 121.127 117.686 121.423 117.916 121.836C118.149 122.249 118.266 122.814 118.266 123.53V127.17H116.589L116.455 126.568H116.356C116.13 126.802 115.847 126.981 115.509 127.106C115.174 127.226 114.809 127.287 114.416 127.287C113.91 127.287 113.479 127.209 113.125 127.053C112.771 126.893 112.504 126.673 112.325 126.393C112.145 126.112 112.056 125.789 112.056 125.423C112.056 124.819 112.293 124.352 112.769 124.021C113.244 123.69 113.99 123.491 115.006 123.425L116.286 123.326C116.278 123.022 116.217 122.784 116.105 122.613C115.992 122.442 115.814 122.319 115.573 122.245C115.335 122.171 115.01 122.134 114.597 122.134C114.305 122.134 113.982 122.159 113.627 122.21C113.273 122.257 112.94 122.327 112.628 122.42V120.983C112.975 120.882 113.353 120.806 113.762 120.755C114.175 120.705 114.568 120.679 114.942 120.679ZM115.041 125.966C115.263 125.966 115.481 125.933 115.696 125.867C115.914 125.797 116.11 125.694 116.286 125.557V124.407L115.187 124.494C114.782 124.529 114.492 124.609 114.317 124.734C114.145 124.858 114.06 125.034 114.06 125.26C114.06 125.482 114.142 125.655 114.305 125.779C114.469 125.904 114.714 125.966 115.041 125.966ZM119.84 120.779H121.488L121.645 121.544H121.739C121.945 121.267 122.212 121.057 122.539 120.913C122.866 120.765 123.229 120.691 123.626 120.691C123.848 120.691 124.051 120.708 124.234 120.744V122.525C124.043 122.486 123.801 122.467 123.509 122.467C123.201 122.467 122.894 122.52 122.586 122.625C122.282 122.726 122.041 122.874 121.862 123.069V127.17H119.84V120.779Z" fill="#FAF6F6"/>
<path d="M273.257 127.281C272.256 127.281 271.331 127.149 270.482 126.884V125.26C270.875 125.392 271.331 125.497 271.849 125.575C272.367 125.649 272.842 125.686 273.274 125.686C273.901 125.686 274.349 125.602 274.618 125.435C274.887 125.267 275.021 125.02 275.021 124.693C275.021 124.51 274.98 124.36 274.899 124.243C274.817 124.126 274.679 124.027 274.484 123.945C274.289 123.863 274.016 123.789 273.666 123.723L272.953 123.583C272.014 123.4 271.333 123.106 270.908 122.701C270.488 122.292 270.277 121.746 270.277 121.065C270.277 120.212 270.61 119.558 271.276 119.102C271.946 118.642 272.938 118.412 274.25 118.412C275.119 118.412 275.901 118.506 276.599 118.693V120.323C276.283 120.225 275.921 120.15 275.512 120.095C275.107 120.037 274.702 120.007 274.297 120.007C273.588 120.007 273.08 120.093 272.772 120.264C272.468 120.432 272.316 120.675 272.316 120.995C272.316 121.166 272.351 121.31 272.421 121.427C272.492 121.54 272.61 121.635 272.778 121.713C272.949 121.791 273.187 121.861 273.491 121.924L274.209 122.064C274.895 122.196 275.446 122.377 275.863 122.607C276.283 122.833 276.587 123.11 276.774 123.437C276.965 123.76 277.06 124.144 277.06 124.588C277.06 125.145 276.908 125.626 276.604 126.031C276.301 126.436 275.863 126.745 275.29 126.96C274.721 127.174 274.044 127.281 273.257 127.281ZM284.642 124.529H280.161C280.185 124.853 280.271 125.11 280.419 125.3C280.567 125.487 280.8 125.626 281.12 125.715C281.443 125.805 281.879 125.85 282.428 125.85C282.981 125.85 283.585 125.783 284.239 125.651V127.076C283.53 127.221 282.824 127.293 282.119 127.293C280.767 127.293 279.768 127.026 279.122 126.492C278.479 125.955 278.158 125.121 278.158 123.992C278.158 123.302 278.286 122.71 278.543 122.216C278.804 121.717 279.184 121.337 279.682 121.077C280.185 120.812 280.79 120.679 281.499 120.679C282.177 120.679 282.75 120.814 283.217 121.082C283.688 121.347 284.043 121.733 284.28 122.239C284.522 122.742 284.642 123.347 284.642 124.056V124.529ZM281.464 121.906C281.036 121.906 280.713 122.029 280.494 122.274C280.28 122.52 280.165 122.903 280.15 123.425H282.773C282.757 122.907 282.641 122.525 282.422 122.28C282.208 122.031 281.889 121.906 281.464 121.906ZM285.879 120.779H287.532L287.661 121.404H287.754C288.031 121.174 288.354 120.997 288.724 120.872C289.098 120.744 289.493 120.679 289.91 120.679C290.704 120.679 291.33 120.907 291.785 121.363C292.241 121.815 292.469 122.514 292.469 123.46V127.17H290.447V123.559C290.447 123.127 290.356 122.821 290.173 122.642C289.99 122.459 289.713 122.368 289.343 122.368C289.074 122.368 288.812 122.416 288.555 122.514C288.297 122.611 288.079 122.751 287.9 122.934V127.17H285.879V120.779ZM296.731 127.275C296.154 127.275 295.638 127.164 295.182 126.942C294.731 126.716 294.372 126.366 294.107 125.89C293.843 125.415 293.71 124.821 293.71 124.109C293.71 123.38 293.86 122.759 294.16 122.245C294.46 121.727 294.892 121.334 295.457 121.065C296.022 120.796 296.697 120.662 297.484 120.662C297.843 120.662 298.224 120.687 298.629 120.738V117.729H300.651V127.17H298.962L298.857 126.504H298.758C298.509 126.745 298.211 126.934 297.864 127.071C297.521 127.207 297.143 127.275 296.731 127.275ZM297.274 125.668C297.535 125.668 297.782 125.628 298.016 125.546C298.253 125.464 298.458 125.335 298.629 125.16V122.28C298.318 122.214 297.981 122.181 297.619 122.181C296.972 122.181 296.493 122.329 296.181 122.625C295.87 122.921 295.714 123.371 295.714 123.974C295.714 125.104 296.234 125.668 297.274 125.668Z" fill="#F8F0F0"/>
<path d="M148.726 8.41951V10.4643H151.472V11.7612H148.726V13.9229H151.822V15.2549H147.09V7.08749H151.822V8.41951H148.726ZM156.896 8.68825C157.667 8.68825 158.29 8.93362 158.766 9.42437C159.241 9.90732 159.478 10.585 159.478 11.4575V15.2549H157.843V11.6795C157.843 11.1653 157.714 10.772 157.457 10.4993C157.2 10.2189 156.849 10.0787 156.405 10.0787C155.954 10.0787 155.595 10.2189 155.33 10.4993C155.073 10.772 154.945 11.1653 154.945 11.6795V15.2549H153.309V8.78173H154.945V9.58795C155.163 9.30753 155.439 9.08942 155.774 8.93362C156.117 8.77004 156.491 8.68825 156.896 8.68825ZM162.938 10.1254V13.2569C162.938 13.475 162.989 13.6346 163.09 13.7359C163.199 13.8294 163.379 13.8761 163.628 13.8761H164.387V15.2549H163.359C161.98 15.2549 161.291 14.585 161.291 13.2452V10.1254H160.52V8.78173H161.291V7.18096H162.938V8.78173H164.387V10.1254H162.938ZM171.581 11.8781C171.581 12.1118 171.566 12.3221 171.535 12.509H166.802C166.841 12.9764 167.005 13.3425 167.293 13.6074C167.581 13.8722 167.936 14.0047 168.356 14.0047C168.964 14.0047 169.396 13.7437 169.653 13.2218H171.418C171.231 13.845 170.872 14.3591 170.343 14.7641C169.813 15.1614 169.163 15.36 168.392 15.36C167.768 15.36 167.207 15.2237 166.709 14.9511C166.218 14.6707 165.833 14.2773 165.552 13.771C165.28 13.2646 165.143 12.6804 165.143 12.0183C165.143 11.3484 165.28 10.7603 165.552 10.254C165.825 9.74764 166.207 9.35816 166.697 9.08552C167.188 8.81289 167.753 8.67657 168.392 8.67657C169.007 8.67657 169.556 8.80899 170.039 9.07384C170.53 9.33868 170.908 9.71648 171.172 10.2072C171.445 10.6902 171.581 11.2471 171.581 11.8781ZM169.887 11.4107C169.879 10.9901 169.727 10.6551 169.431 10.4059C169.135 10.1488 168.773 10.0203 168.345 10.0203C167.94 10.0203 167.597 10.1449 167.317 10.3942C167.044 10.6357 166.876 10.9745 166.814 11.4107H169.887ZM174.411 9.78659C174.621 9.44384 174.894 9.1751 175.229 8.98036C175.572 8.78562 175.961 8.68825 176.398 8.68825V10.4059H175.965C175.451 10.4059 175.062 10.5266 174.797 10.7681C174.54 11.0096 174.411 11.4302 174.411 12.03V15.2549H172.775V8.78173H174.411V9.78659ZM179.863 11.9949C179.863 11.3406 179.991 10.7603 180.248 10.254C180.513 9.74764 180.868 9.35816 181.312 9.08552C181.764 8.81289 182.266 8.67657 182.819 8.67657C183.302 8.67657 183.723 8.77394 184.081 8.96868C184.447 9.16342 184.739 9.40879 184.957 9.70479V8.78173H186.605V15.2549H184.957V14.3084C184.747 14.6122 184.455 14.8654 184.081 15.0679C183.715 15.2627 183.29 15.36 182.807 15.36C182.262 15.36 181.764 15.2198 181.312 14.9394C180.868 14.659 180.513 14.2656 180.248 13.7593C179.991 13.2452 179.863 12.6571 179.863 11.9949ZM184.957 12.0183C184.957 11.621 184.879 11.2822 184.724 11.0018C184.568 10.7135 184.357 10.4954 184.093 10.3474C183.828 10.1916 183.543 10.1137 183.24 10.1137C182.936 10.1137 182.655 10.1877 182.398 10.3358C182.141 10.4838 181.931 10.7019 181.767 10.9901C181.612 11.2705 181.534 11.6055 181.534 11.9949C181.534 12.3844 181.612 12.7272 181.767 13.0232C181.931 13.3114 182.141 13.5334 182.398 13.6892C182.663 13.845 182.944 13.9229 183.24 13.9229C183.543 13.9229 183.828 13.8489 184.093 13.7009C184.357 13.5451 184.568 13.327 184.724 13.0465C184.879 12.7583 184.957 12.4156 184.957 12.0183ZM192.622 9.71648C192.833 9.42047 193.121 9.1751 193.487 8.98036C193.861 8.77783 194.285 8.67657 194.761 8.67657C195.314 8.67657 195.812 8.81289 196.256 9.08552C196.708 9.35816 197.062 9.74764 197.32 10.254C197.584 10.7525 197.717 11.3328 197.717 11.9949C197.717 12.6571 197.584 13.2452 197.32 13.7593C197.062 14.2656 196.708 14.659 196.256 14.9394C195.812 15.2198 195.314 15.36 194.761 15.36C194.285 15.36 193.865 15.2627 193.499 15.0679C193.14 14.8732 192.848 14.6278 192.622 14.3318V18.3396H190.987V8.78173H192.622V9.71648ZM196.046 11.9949C196.046 11.6055 195.964 11.2705 195.801 10.9901C195.645 10.7019 195.434 10.4838 195.17 10.3358C194.913 10.1877 194.632 10.1137 194.328 10.1137C194.032 10.1137 193.752 10.1916 193.487 10.3474C193.23 10.4954 193.02 10.7135 192.856 11.0018C192.7 11.29 192.622 11.6288 192.622 12.0183C192.622 12.4078 192.7 12.7466 192.856 13.0348C193.02 13.3231 193.23 13.5451 193.487 13.7009C193.752 13.8489 194.032 13.9229 194.328 13.9229C194.632 13.9229 194.913 13.845 195.17 13.6892C195.434 13.5334 195.645 13.3114 195.801 13.0232C195.964 12.7349 196.046 12.3922 196.046 11.9949ZM198.485 11.9949C198.485 11.3406 198.613 10.7603 198.87 10.254C199.135 9.74764 199.49 9.35816 199.934 9.08552C200.386 8.81289 200.888 8.67657 201.441 8.67657C201.924 8.67657 202.345 8.77394 202.703 8.96868C203.069 9.16342 203.361 9.40879 203.579 9.70479V8.78173H205.227V15.2549H203.579V14.3084C203.369 14.6122 203.077 14.8654 202.703 15.0679C202.337 15.2627 201.912 15.36 201.429 15.36C200.884 15.36 200.386 15.2198 199.934 14.9394C199.49 14.659 199.135 14.2656 198.87 13.7593C198.613 13.2452 198.485 12.6571 198.485 11.9949ZM203.579 12.0183C203.579 11.621 203.501 11.2822 203.346 11.0018C203.19 10.7135 202.979 10.4954 202.715 10.3474C202.45 10.1916 202.165 10.1137 201.862 10.1137C201.558 10.1137 201.277 10.1877 201.02 10.3358C200.763 10.4838 200.553 10.7019 200.389 10.9901C200.234 11.2705 200.156 11.6055 200.156 11.9949C200.156 12.3844 200.234 12.7272 200.389 13.0232C200.553 13.3114 200.763 13.5334 201.02 13.6892C201.285 13.845 201.566 13.9229 201.862 13.9229C202.165 13.9229 202.45 13.8489 202.715 13.7009C202.979 13.5451 203.19 13.327 203.346 13.0465C203.501 12.7583 203.579 12.4156 203.579 12.0183ZM208.46 9.78659C208.671 9.44384 208.943 9.1751 209.278 8.98036C209.621 8.78562 210.01 8.68825 210.447 8.68825V10.4059H210.014C209.5 10.4059 209.111 10.5266 208.846 10.7681C208.589 11.0096 208.46 11.4302 208.46 12.03V15.2549H206.824V8.78173H208.46V9.78659ZM213.453 10.1254V13.2569C213.453 13.475 213.504 13.6346 213.605 13.7359C213.714 13.8294 213.893 13.8761 214.142 13.8761H214.902V15.2549H213.874C212.495 15.2549 211.805 14.585 211.805 13.2452V10.1254H211.034V8.78173H211.805V7.18096H213.453V8.78173H214.902V10.1254H213.453ZM222.271 8.78173L218.263 18.3162H216.522L217.924 15.0913L215.331 8.78173H217.165L218.836 13.3036L220.53 8.78173H222.271ZM228.414 15.36C227.884 15.36 227.409 15.2666 226.989 15.0796C226.568 14.8849 226.233 14.6239 225.984 14.2968C225.742 13.9696 225.61 13.6074 225.587 13.2101H227.234C227.265 13.4594 227.386 13.6658 227.596 13.8294C227.814 13.993 228.083 14.0748 228.402 14.0748C228.714 14.0748 228.956 14.0124 229.127 13.8878C229.306 13.7632 229.396 13.6035 229.396 13.4087C229.396 13.1984 229.287 13.0426 229.068 12.9414C228.858 12.8323 228.519 12.7155 228.052 12.5908C227.569 12.474 227.172 12.3533 226.86 12.2286C226.556 12.104 226.291 11.9131 226.066 11.6561C225.847 11.399 225.738 11.0524 225.738 10.6162C225.738 10.2579 225.84 9.93069 226.042 9.63469C226.253 9.33868 226.549 9.105 226.93 8.93362C227.32 8.76225 227.775 8.67657 228.297 8.67657C229.068 8.67657 229.684 8.87131 230.143 9.26079C230.603 9.64248 230.856 10.1605 230.903 10.8148H229.337C229.314 10.5578 229.205 10.3552 229.01 10.2072C228.823 10.0514 228.57 9.97354 228.251 9.97354C227.955 9.97354 227.725 10.0281 227.561 10.1371C227.405 10.2462 227.328 10.3981 227.328 10.5928C227.328 10.8109 227.437 10.9784 227.655 11.0952C227.873 11.2043 228.212 11.3172 228.671 11.4341C229.139 11.5509 229.524 11.6717 229.828 11.7963C230.132 11.9209 230.393 12.1157 230.611 12.3805C230.837 12.6376 230.954 12.9803 230.961 13.4087C230.961 13.7826 230.856 14.1176 230.646 14.4136C230.443 14.7096 230.147 14.9433 229.758 15.1147C229.376 15.2783 228.928 15.36 228.414 15.36ZM233.134 8.01056C232.846 8.01056 232.604 7.92098 232.409 7.74182C232.222 7.55487 232.129 7.32507 232.129 7.05244C232.129 6.7798 232.222 6.5539 232.409 6.37474C232.604 6.18779 232.846 6.09432 233.134 6.09432C233.422 6.09432 233.66 6.18779 233.846 6.37474C234.041 6.5539 234.139 6.7798 234.139 7.05244C234.139 7.32507 234.041 7.55487 233.846 7.74182C233.66 7.92098 233.422 8.01056 233.134 8.01056ZM233.94 8.78173V15.2549H232.304V8.78173H233.94ZM237.052 13.9112H239.938V15.2549H235.194V13.9345L238.022 10.1254H235.206V8.78173H239.903V10.1021L237.052 13.9112ZM247.222 11.8781C247.222 12.1118 247.206 12.3221 247.175 12.509H242.443C242.482 12.9764 242.645 13.3425 242.934 13.6074C243.222 13.8722 243.576 14.0047 243.997 14.0047C244.605 14.0047 245.037 13.7437 245.294 13.2218H247.058C246.871 13.845 246.513 14.3591 245.983 14.7641C245.454 15.1614 244.803 15.36 244.032 15.36C243.409 15.36 242.848 15.2237 242.349 14.9511C241.859 14.6707 241.473 14.2773 241.193 13.771C240.92 13.2646 240.784 12.6804 240.784 12.0183C240.784 11.3484 240.92 10.7603 241.193 10.254C241.465 9.74764 241.847 9.35816 242.338 9.08552C242.829 8.81289 243.393 8.67657 244.032 8.67657C244.647 8.67657 245.197 8.80899 245.68 9.07384C246.17 9.33868 246.548 9.71648 246.813 10.2072C247.086 10.6902 247.222 11.2471 247.222 11.8781ZM245.528 11.4107C245.52 10.9901 245.368 10.6551 245.072 10.4059C244.776 10.1488 244.414 10.0203 243.985 10.0203C243.58 10.0203 243.237 10.1449 242.957 10.3942C242.684 10.6357 242.517 10.9745 242.455 11.4107H245.528Z" fill="black"/>
<path d="M185.222 83.7111C185.284 84.0539 185.425 84.3187 185.643 84.5057C185.869 84.6848 186.168 84.7744 186.542 84.7744C187.025 84.7744 187.376 84.5758 187.594 84.1785C187.812 83.7735 187.921 83.0958 187.921 82.1454C187.742 82.3947 187.489 82.5894 187.162 82.7297C186.842 82.8699 186.496 82.94 186.122 82.94C185.623 82.94 185.171 82.8387 184.766 82.6362C184.369 82.4259 184.054 82.1182 183.82 81.7131C183.586 81.3003 183.469 80.8017 183.469 80.2175C183.469 79.3529 183.726 78.6674 184.241 78.1611C184.755 77.6469 185.456 77.3899 186.344 77.3899C187.45 77.3899 188.229 77.7443 188.681 78.4532C189.14 79.162 189.37 80.2292 189.37 81.6547C189.37 82.6673 189.28 83.4969 189.101 84.1435C188.93 84.79 188.63 85.2807 188.202 85.6157C187.781 85.9507 187.205 86.1181 186.472 86.1181C185.896 86.1181 185.405 86.0091 185 85.791C184.595 85.5651 184.283 85.273 184.065 84.9146C183.855 84.5485 183.734 84.1474 183.703 83.7111H185.222ZM186.461 81.608C186.866 81.608 187.185 81.4833 187.419 81.2341C187.652 80.9848 187.769 80.6498 187.769 80.2292C187.769 79.7696 187.645 79.4152 187.395 79.1659C187.154 78.9089 186.823 78.7803 186.402 78.7803C185.982 78.7803 185.647 78.9128 185.397 79.1776C185.156 79.4347 185.035 79.7774 185.035 80.2058C185.035 80.6187 185.152 80.9575 185.386 81.2224C185.627 81.4794 185.985 81.608 186.461 81.608Z" fill="black"/>
<path d="M139.083 81.5963C138.304 81.1912 137.915 80.5641 137.915 79.7151C137.915 79.2944 138.02 78.9128 138.23 78.57C138.448 78.2195 138.772 77.9429 139.2 77.7404C139.636 77.5301 140.166 77.4249 140.789 77.4249C141.412 77.4249 141.938 77.5301 142.367 77.7404C142.803 77.9429 143.126 78.2195 143.336 78.57C143.554 78.9128 143.664 79.2944 143.664 79.7151C143.664 80.1435 143.558 80.5213 143.348 80.8485C143.138 81.1678 142.857 81.4171 142.507 81.5963C142.935 81.7832 143.27 82.0559 143.512 82.4142C143.753 82.7725 143.874 83.197 143.874 83.6878C143.874 84.2175 143.738 84.6809 143.465 85.0782C143.2 85.4677 142.834 85.7676 142.367 85.9779C141.899 86.1882 141.373 86.2934 140.789 86.2934C140.205 86.2934 139.679 86.1882 139.212 85.9779C138.752 85.7676 138.386 85.4677 138.113 85.0782C137.849 84.6809 137.716 84.2175 137.716 83.6878C137.716 83.197 137.837 82.7725 138.078 82.4142C138.32 82.0481 138.655 81.7754 139.083 81.5963ZM142.074 79.9488C142.074 79.5671 141.958 79.2711 141.724 79.0608C141.498 78.8504 141.186 78.7453 140.789 78.7453C140.4 78.7453 140.088 78.8504 139.854 79.0608C139.628 79.2711 139.516 79.571 139.516 79.9605C139.516 80.311 139.632 80.5914 139.866 80.8017C140.108 81.012 140.415 81.1172 140.789 81.1172C141.163 81.1172 141.471 81.012 141.712 80.8017C141.954 80.5836 142.074 80.2993 142.074 79.9488ZM140.789 82.309C140.345 82.309 139.983 82.422 139.702 82.6479C139.43 82.8738 139.294 83.197 139.294 83.6177C139.294 84.0071 139.426 84.3265 139.691 84.5758C139.963 84.8173 140.33 84.938 140.789 84.938C141.249 84.938 141.611 84.8134 141.876 84.5641C142.141 84.3148 142.273 83.9994 142.273 83.6177C142.273 83.2048 142.137 82.8854 141.864 82.6595C141.591 82.4259 141.233 82.309 140.789 82.309Z" fill="black"/>
<path d="M97.2444 78.8271L94.1364 86.1064H92.4772L95.6086 79.014H91.6126V77.6119H97.2444V78.8271Z" fill="black"/>
<path d="M49.315 79.7151C49.2371 79.3879 49.1008 79.1425 48.906 78.979C48.7191 78.8154 48.4465 78.7336 48.0881 78.7336C47.5506 78.7336 47.1534 78.9517 46.8963 79.3879C46.6471 79.8163 46.5185 80.5174 46.5107 81.4911C46.6977 81.1795 46.9703 80.938 47.3286 80.7667C47.687 80.5875 48.0764 80.4979 48.4971 80.4979C49.0034 80.4979 49.4513 80.607 49.8408 80.8251C50.2303 81.0432 50.5341 81.3626 50.7522 81.7832C50.9703 82.1961 51.0793 82.6946 51.0793 83.2788C51.0793 83.8319 50.9664 84.3265 50.7405 84.7627C50.5224 85.1912 50.1991 85.5261 49.7707 85.7676C49.3423 86.0091 48.832 86.1298 48.24 86.1298C47.4299 86.1298 46.7912 85.9507 46.3238 85.5923C45.8642 85.234 45.5409 84.7355 45.354 84.0967C45.1748 83.4502 45.0852 82.6557 45.0852 81.7131C45.0852 80.2876 45.3306 79.2127 45.8214 78.4882C46.3121 77.756 47.0872 77.3899 48.1466 77.3899C48.9645 77.3899 49.5993 77.6119 50.0511 78.0559C50.5029 78.4999 50.7639 79.053 50.834 79.7151H49.315ZM48.1232 81.8416C47.7103 81.8416 47.3637 81.9624 47.0833 82.2039C46.8028 82.4453 46.6626 82.7959 46.6626 83.2555C46.6626 83.715 46.7912 84.0773 47.0482 84.3421C47.3131 84.6069 47.6831 84.7394 48.1582 84.7394C48.5789 84.7394 48.9099 84.6108 49.1514 84.3538C49.4007 84.0967 49.5253 83.7501 49.5253 83.3139C49.5253 82.8621 49.4046 82.5038 49.1631 82.2389C48.9294 81.9741 48.5828 81.8416 48.1232 81.8416Z" fill="black"/>
<path d="M46.32 43.2872V41.7799H49.1359V50.2979H47.4533V43.2872H46.32Z" fill="black"/>
<path d="M92.183 48.4517C92.9308 47.8285 93.5267 47.3105 93.9707 46.8977C94.4147 46.4771 94.7847 46.0408 95.0807 45.589C95.3767 45.1372 95.5247 44.6932 95.5247 44.257C95.5247 43.8597 95.4312 43.5482 95.2443 43.3223C95.0573 43.0964 94.7691 42.9834 94.3796 42.9834C93.9901 42.9834 93.6902 43.1158 93.4799 43.3807C93.2696 43.6377 93.1605 43.9922 93.1528 44.444H91.5637C91.5948 43.5092 91.8714 42.8004 92.3933 42.3174C92.923 41.8345 93.5929 41.593 94.403 41.593C95.291 41.593 95.9726 41.8306 96.4478 42.3057C96.9229 42.7731 97.1605 43.3924 97.1605 44.1635C97.1605 44.7711 96.9969 45.3515 96.6698 45.9045C96.3426 46.4576 95.9687 46.9405 95.5481 47.3534C95.1274 47.7584 94.5783 48.2492 93.9006 48.8256H97.3475V50.181H91.5754V48.9658L92.183 48.4517Z" fill="black"/>
<path d="M141.855 45.8052C142.463 45.922 142.929 46.1577 143.252 46.5121C143.579 46.8665 143.743 47.3261 143.743 47.8909C143.743 48.6932 143.45 49.3144 142.866 49.7545C142.286 50.1907 141.396 50.4089 140.196 50.4089C139.776 50.4089 139.355 50.3777 138.934 50.3154C138.514 50.257 138.118 50.1713 137.748 50.0583V49.0651C138.138 49.1781 138.539 49.2677 138.952 49.3339C139.365 49.3962 139.762 49.4274 140.144 49.4274C141.709 49.4274 142.492 48.8918 142.492 47.8208C142.492 47.3378 142.321 46.9736 141.978 46.7283C141.639 46.4829 141.106 46.3602 140.377 46.3602H138.964V45.3729H139.822C140.609 45.3729 141.193 45.2521 141.575 45.0107C141.961 44.7653 142.153 44.3953 142.153 43.9006C142.153 43.4605 141.988 43.1217 141.657 42.8841C141.326 42.6426 140.839 42.5219 140.196 42.5219C139.834 42.5219 139.464 42.5511 139.086 42.6095C138.712 42.664 138.35 42.7478 138 42.8607V41.8734C138.331 41.7682 138.697 41.6865 139.098 41.628C139.503 41.5696 139.906 41.5404 140.307 41.5404C140.985 41.5404 141.556 41.63 142.019 41.8091C142.486 41.9883 142.839 42.2492 143.077 42.592C143.314 42.9308 143.433 43.3378 143.433 43.813C143.433 44.2999 143.293 44.7166 143.012 45.0632C142.732 45.406 142.346 45.6533 141.855 45.8052Z" fill="black"/>
<path d="M183.054 48.6387V47.3534L186.874 41.8851H188.779V47.2132H189.807V48.6387H188.779V50.2979H187.143V48.6387H183.054ZM187.248 43.6377L184.853 47.2132H187.248V43.6377Z" fill="black"/>
<path d="M234.403 42.925H230.489V45.2502C230.652 45.0321 230.894 44.849 231.213 44.701C231.54 44.553 231.887 44.479 232.253 44.479C232.907 44.479 233.437 44.6192 233.842 44.8997C234.255 45.1801 234.547 45.5345 234.718 45.9629C234.898 46.3914 234.987 46.8432 234.987 47.3183C234.987 47.8948 234.874 48.4089 234.648 48.8607C234.43 49.3047 234.099 49.6552 233.655 49.9123C233.219 50.1693 232.681 50.2979 232.043 50.2979C231.194 50.2979 230.512 50.0875 229.998 49.6669C229.484 49.2463 229.176 48.6893 229.075 47.996H230.372C230.458 48.3621 230.648 48.6542 230.944 48.8724C231.24 49.0827 231.61 49.1878 232.054 49.1878C232.607 49.1878 233.02 49.0204 233.293 48.6854C233.573 48.3505 233.714 47.9064 233.714 47.3534C233.714 46.7925 233.573 46.3641 233.293 46.0681C233.013 45.7643 232.6 45.6124 232.054 45.6124C231.673 45.6124 231.349 45.7098 231.085 45.9045C230.828 46.0915 230.641 46.3485 230.524 46.6757H229.262V41.7566H234.403V42.925Z" fill="black"/>
<path d="M228.784 81.7365C228.784 80.3889 229.025 79.3334 229.508 78.57C229.999 77.8066 230.809 77.4249 231.939 77.4249C233.068 77.4249 233.874 77.8066 234.357 78.57C234.848 79.3334 235.093 80.3889 235.093 81.7365C235.093 83.0919 234.848 84.1552 234.357 84.9263C233.874 85.6975 233.068 86.0831 231.939 86.0831C230.809 86.0831 229.999 85.6975 229.508 84.9263C229.025 84.1552 228.784 83.0919 228.784 81.7365ZM233.481 81.7365C233.481 81.1601 233.442 80.6771 233.364 80.2876C233.294 79.8903 233.146 79.5671 232.92 79.3178C232.702 79.0685 232.375 78.9439 231.939 78.9439C231.502 78.9439 231.171 79.0685 230.946 79.3178C230.727 79.5671 230.579 79.8903 230.501 80.2876C230.431 80.6771 230.396 81.1601 230.396 81.7365C230.396 82.3285 230.431 82.827 230.501 83.2321C230.572 83.6294 230.72 83.9526 230.946 84.2019C231.171 84.4434 231.502 84.5641 231.939 84.5641C232.375 84.5641 232.706 84.4434 232.932 84.2019C233.158 83.9526 233.306 83.6294 233.376 83.2321C233.446 82.827 233.481 82.3285 233.481 81.7365Z" fill="black"/>
<rect x="265.484" y="30.3304" width="101.394" height="66.7084" rx="3.7557" fill="#BFB6B6" fill-opacity="0.5" stroke="#EDEBEB" stroke-width="0.8346"/>
<path d="M315.757 71.4881C314.428 71.4881 313.283 71.2111 312.322 70.6569C311.36 70.1027 310.616 69.2614 310.088 68.133C309.568 66.998 309.307 65.5825 309.307 63.8866C309.307 62.1907 309.568 60.7752 310.088 59.6402C310.609 58.5051 311.35 57.6638 312.312 57.1163C313.273 56.5622 314.422 56.2851 315.757 56.2851C317.092 56.2851 318.241 56.5622 319.202 57.1163C320.17 57.6638 320.915 58.5051 321.436 59.6402C321.963 60.7752 322.227 62.1907 322.227 63.8866C322.227 65.5825 321.963 66.998 321.436 68.133C320.915 69.2614 320.17 70.1027 319.202 70.6569C318.234 71.2111 317.086 71.4881 315.757 71.4881ZM315.777 68.6338C316.418 68.6338 316.956 68.4869 317.39 68.1931C317.83 67.8927 318.167 67.3953 318.401 66.7009C318.641 66.0065 318.762 65.0717 318.762 63.8966C318.762 62.7148 318.641 61.7767 318.401 61.0824C318.167 60.3813 317.83 59.8839 317.39 59.5901C316.956 59.2896 316.418 59.1394 315.777 59.1394C315.129 59.1394 314.585 59.2896 314.145 59.5901C313.704 59.8839 313.363 60.3779 313.123 61.0723C312.889 61.7667 312.773 62.7015 312.773 63.8766C312.773 65.0584 312.889 65.9998 313.123 66.7009C313.363 67.3953 313.701 67.8927 314.135 68.1931C314.575 68.4869 315.123 68.6338 315.777 68.6338Z" fill="#0E0E0E"/>
<defs>
<linearGradient id="paint0_linear_2223_13655" x1="182.008" y1="154.765" x2="179.664" y2="-29.1534" gradientUnits="userSpaceOnUse">
<stop offset="0.848958" stop-color="#EDEBEB"/>
<stop offset="1" stop-color="#EDEBEB" stop-opacity="0"/>
</linearGradient>
</defs>
</svg>
