<svg width="21" height="14" viewBox="0 0 21 14" fill="none" xmlns="http://www.w3.org/2000/svg">
<rect width="20.1915" height="13.9787" rx="3.88298" fill="#716A6A"/>
<rect width="20.1915" height="13.9787" rx="3.88298" fill="#716A6A"/>
<rect width="20.1915" height="13.9787" rx="3.88298" fill="#716A6A"/>
<rect width="20.1915" height="13.9787" rx="3.88298" fill="#716A6A"/>
<rect width="20.1915" height="13.9787" rx="3.88298" fill="#716A6A"/>
<path d="M10.7614 3.10645C9.70213 3.10645 8.68626 3.51554 7.93726 4.24374C7.18825 4.97194 6.76746 5.95959 6.76746 6.98942H5.43616L7.16242 8.66773L7.19348 8.72814L8.98631 6.98942H7.655C7.655 6.18845 7.98228 5.42027 8.56484 4.85389C9.1474 4.28752 9.93752 3.96933 10.7614 3.96933C11.5852 3.96933 12.3754 4.28752 12.9579 4.85389C13.5405 5.42027 13.8678 6.18845 13.8678 6.98942C13.8678 7.7904 13.5405 8.55858 12.9579 9.12495C12.3754 9.69133 11.5852 10.0095 10.7614 10.0095C9.90491 10.0095 9.12832 9.66868 8.56917 9.12075L7.93901 9.7334C8.66236 10.441 9.65196 10.8724 10.7614 10.8724C11.8206 10.8724 12.8365 10.4633 13.5855 9.7351C14.3345 9.0069 14.7553 8.01925 14.7553 6.98942C14.7553 5.95959 14.3345 4.97194 13.5855 4.24374C12.8365 3.51554 11.8206 3.10645 10.7614 3.10645Z" fill="white"/>
</svg>
