<svg width="49" height="34" viewBox="0 0 49 34" fill="none" xmlns="http://www.w3.org/2000/svg">
<rect width="48.1226" height="33.3157" rx="9.25435" fill="#716A6A"/>
<rect width="48.1226" height="33.3157" rx="9.25435" fill="#716A6A"/>
<rect width="48.1226" height="33.3157" rx="9.25435" fill="#716A6A"/>
<rect width="48.1226" height="33.3157" rx="9.25435" fill="#716A6A"/>
<rect width="48.1226" height="33.3157" rx="9.25435" fill="#716A6A"/>
<path d="M25.6477 7.40332C23.1232 7.40332 20.7021 8.37833 18.917 10.1139C17.1318 11.8494 16.129 14.2033 16.129 16.6577H12.9561L17.0703 20.6576L17.1443 20.8016L21.4172 16.6577H18.2443C18.2443 14.7487 19.0243 12.9179 20.4127 11.568C21.8011 10.2182 23.6842 9.45984 25.6477 9.45984C27.6113 9.45984 29.4944 10.2182 30.8828 11.568C32.2712 12.9179 33.0512 14.7487 33.0512 16.6577C33.0512 18.5667 32.2712 20.3974 30.8828 21.7473C29.4944 23.0972 27.6113 23.8555 25.6477 23.8555C23.6065 23.8555 21.7556 23.0432 20.423 21.7373L18.9211 23.1974C20.6451 24.8838 23.0036 25.912 25.6477 25.912C28.1723 25.912 30.5934 24.937 32.3785 23.2015C34.1636 21.466 35.1665 19.1121 35.1665 16.6577C35.1665 14.2033 34.1636 11.8494 32.3785 10.1139C30.5934 8.37833 28.1723 7.40332 25.6477 7.40332Z" fill="white"/>
</svg>
