<svg width="21" height="14" viewBox="0 0 21 14" fill="none" xmlns="http://www.w3.org/2000/svg">
<rect width="20.1915" height="13.9787" rx="3.88298" fill="#716A6A"/>
<rect width="20.1915" height="13.9787" rx="3.88298" fill="#716A6A"/>
<rect width="20.1915" height="13.9787" rx="3.88298" fill="#716A6A"/>
<rect width="20.1915" height="13.9787" rx="3.88298" fill="#716A6A"/>
<rect width="20.1915" height="13.9787" rx="3.88298" fill="#716A6A"/>
<path d="M12.8693 8.9642H12.4486L12.2995 8.82041C12.8214 8.21334 13.1356 7.42521 13.1356 6.56784C13.1356 5.64982 12.7709 4.7694 12.1217 4.12027C11.4726 3.47113 10.5922 3.10645 9.67417 3.10645C8.75615 3.10645 7.87573 3.47113 7.22659 4.12027C6.57745 4.7694 6.21277 5.64982 6.21277 6.56784C6.21277 7.48586 6.57745 8.36628 7.22659 9.01542C7.87573 9.66456 8.75615 10.0292 9.67417 10.0292C10.5315 10.0292 11.3197 9.71505 11.9267 9.19318L12.0705 9.34229V9.76298L14.7331 12.4256L15.5319 11.6268L12.8693 8.9642ZM9.67417 8.9642C8.34286 8.9642 7.27781 7.89915 7.27781 6.56784C7.27781 5.23654 8.34286 4.17149 9.67417 4.17149C11.0055 4.17149 12.0705 5.23654 12.0705 6.56784C12.0705 7.89915 11.0055 8.9642 9.67417 8.9642ZM8.34286 6.30158H11.0055V6.8341H8.34286V6.30158Z" fill="white"/>
</svg>
