<svg width="21" height="14" viewBox="0 0 21 14" fill="none" xmlns="http://www.w3.org/2000/svg">
<rect width="20.1915" height="13.9787" rx="3.88298" fill="#716A6A"/>
<rect width="20.1915" height="13.9787" rx="3.88298" fill="#716A6A"/>
<rect width="20.1915" height="13.9787" rx="3.88298" fill="#716A6A"/>
<rect width="20.1915" height="13.9787" rx="3.88298" fill="#716A6A"/>
<rect width="20.1915" height="13.9787" rx="3.88298" fill="#716A6A"/>
<path d="M12.8693 8.9642L15.5319 11.6268L14.7331 12.4256L12.0705 9.76298V9.34229L11.9267 9.19318C11.3197 9.71505 10.5315 10.0292 9.67417 10.0292C8.75615 10.0292 7.87573 9.66456 7.22659 9.01542C6.57745 8.36628 6.21277 7.48586 6.21277 6.56784C6.21277 5.64982 6.57745 4.7694 7.22659 4.12027C7.87573 3.47113 8.75615 3.10645 9.67417 3.10645C10.5922 3.10645 11.4726 3.47113 12.1217 4.12027C12.7709 4.7694 13.1356 5.64982 13.1356 6.56784C13.1356 7.42521 12.8214 8.21334 12.2995 8.82041L12.4486 8.9642H12.8693ZM9.67417 8.9642C11.0055 8.9642 12.0705 7.89915 12.0705 6.56784C12.0705 5.23654 11.0055 4.17149 9.67417 4.17149C8.34286 4.17149 7.27781 5.23654 7.27781 6.56784C7.27781 7.89915 8.34286 8.9642 9.67417 8.9642ZM11.0055 6.8341H9.94043V7.89915H9.40791V6.8341H8.34286V6.30158H9.40791V5.23654H9.94043V6.30158H11.0055V6.8341Z" fill="white"/>
</svg>
