<svg width="49" height="34" viewBox="0 0 49 34" fill="none" xmlns="http://www.w3.org/2000/svg">
<rect width="48.1226" height="33.3157" rx="9.25435" fill="#716A6A"/>
<rect width="48.1226" height="33.3157" rx="9.25435" fill="#716A6A"/>
<rect width="48.1226" height="33.3157" rx="9.25435" fill="#716A6A"/>
<rect width="48.1226" height="33.3157" rx="9.25435" fill="#716A6A"/>
<rect width="48.1226" height="33.3157" rx="9.25435" fill="#716A6A"/>
<path d="M30.6716 21.3642H29.669L29.3136 21.0215C30.5574 19.5746 31.3062 17.6963 31.3062 15.6529C31.3062 13.465 30.437 11.3667 28.8899 9.81957C27.3428 8.27247 25.2445 7.40332 23.0566 7.40332C20.8687 7.40332 18.7704 8.27247 17.2233 9.81957C15.6762 11.3667 14.807 13.465 14.807 15.6529C14.807 17.8408 15.6762 19.9392 17.2233 21.4863C18.7704 23.0334 20.8687 23.9025 23.0566 23.9025C25.1 23.9025 26.9783 23.1537 28.4252 21.9099L28.7679 22.2653V23.2679L35.1137 29.6138L37.0174 27.71L30.6716 21.3642ZM23.0566 21.3642C19.8837 21.3642 17.3453 18.8258 17.3453 15.6529C17.3453 12.48 19.8837 9.94166 23.0566 9.94166C26.2295 9.94166 28.7679 12.48 28.7679 15.6529C28.7679 18.8258 26.2295 21.3642 23.0566 21.3642ZM19.8837 15.0183H26.2295V16.2875H19.8837V15.0183Z" fill="white"/>
</svg>
