<svg width="49" height="34" viewBox="0 0 49 34" fill="none" xmlns="http://www.w3.org/2000/svg">
<rect width="48.1226" height="33.3157" rx="9.25435" fill="#716A6A"/>
<rect width="48.1226" height="33.3157" rx="9.25435" fill="#716A6A"/>
<rect width="48.1226" height="33.3157" rx="9.25435" fill="#716A6A"/>
<rect width="48.1226" height="33.3157" rx="9.25435" fill="#716A6A"/>
<rect width="48.1226" height="33.3157" rx="9.25435" fill="#716A6A"/>
<path d="M30.6715 21.3642L37.0173 27.71L35.1136 29.6138L28.7677 23.2679V22.2653L28.4251 21.9099C26.9782 23.1537 25.0998 23.9025 23.0565 23.9025C20.8685 23.9025 18.7702 23.0334 17.2231 21.4863C15.676 19.9392 14.8069 17.8408 14.8069 15.6529C14.8069 13.465 15.676 11.3667 17.2231 9.81957C18.7702 8.27247 20.8685 7.40332 23.0565 7.40332C25.2444 7.40332 27.3427 8.27247 28.8898 9.81957C30.4369 11.3667 31.3061 13.465 31.3061 15.6529C31.3061 17.6963 30.5573 19.5746 29.3135 21.0215L29.6688 21.3642H30.6715ZM23.0565 21.3642C26.2294 21.3642 28.7677 18.8258 28.7677 15.6529C28.7677 12.48 26.2294 9.94166 23.0565 9.94166C19.8836 9.94166 17.3452 12.48 17.3452 15.6529C17.3452 18.8258 19.8836 21.3642 23.0565 21.3642ZM26.2294 16.2875H23.6911V18.8258H22.4219V16.2875H19.8836V15.0183H22.4219V12.48H23.6911V15.0183H26.2294V16.2875Z" fill="white"/>
</svg>
